<svg width="20" height="20" viewBox="0 0 20 20" fill="none" xmlns="http://www.w3.org/2000/svg">
<mask id="mask0_698_4115" style="mask-type:alpha" maskUnits="userSpaceOnUse" x="0" y="0" width="20" height="20">
<rect width="20" height="20" fill="#D9D9D9"/>
</mask>
<g mask="url(#mask0_698_4115)">
<path d="M7.5 15C7.04167 15 6.64931 14.8368 6.32292 14.5104C5.99653 14.184 5.83333 13.7917 5.83333 13.3333V3.33333C5.83333 2.875 5.99653 2.48264 6.32292 2.15625C6.64931 1.82986 7.04167 1.66666 7.5 1.66666H15C15.4583 1.66666 15.8507 1.82986 16.1771 2.15625C16.5035 2.48264 16.6667 2.875 16.6667 3.33333V13.3333C16.6667 13.7917 16.5035 14.184 16.1771 14.5104C15.8507 14.8368 15.4583 15 15 15H7.5ZM7.5 13.3333H15V3.33333H7.5V13.3333ZM4.16667 18.3333C3.70833 18.3333 3.31597 18.1701 2.98958 17.8437C2.66319 17.5174 2.5 17.125 2.5 16.6667V5H4.16667V16.6667H13.3333V18.3333H4.16667Z" fill="#98A2B3"/>
</g>
</svg>
