<svg xmlns="http://www.w3.org/2000/svg" xml:space="preserve" style="fill-rule:evenodd;clip-rule:evenodd;stroke-linejoin:round;stroke-miterlimit:2" viewBox="0 0 32 32">
  <g>
    <path d="M21.22 4.459h6.559s3.667 0 3.667 3.666v3.918s0 3.666-3.667 3.666H21.22s-3.666 0-3.666-3.666V8.125s0-3.666 3.666-3.666Zm0 2c-1.666 0-1.666 1.666-1.666 1.666v3.918c0 1.666 1.666 1.666 1.666 1.666h6.559c1.667 0 1.667-1.666 1.667-1.666V8.125c0-1.666-1.667-1.666-1.667-1.666H21.22Z"/>
    <path d="M23.499 1.809a1 1 0 0 1 2 0v3.649a1 1 0 0 1-2 0V1.809ZM21.571 9.566a.75.75 0 0 1 1.5 0v1.049a.75.75 0 0 1-1.5 0V9.566ZM25.926 9.566a.75.75 0 0 1 1.5 0v1.049a.75.75 0 0 1-1.5 0V9.566Z"/>
  </g>
  <g>
    <path d="M6.22 19.459h6.559s3.667 0 3.667 3.666v3.918s0 3.666-3.667 3.666H6.22s-3.666 0-3.666-3.666v-3.918s0-3.666 3.666-3.666Zm0 2c-1.666 0-1.666 1.666-1.666 1.666v3.918c0 1.666 1.666 1.666 1.666 1.666h6.559c1.667 0 1.667-1.666 1.667-1.666v-3.918c0-1.666-1.667-1.666-1.667-1.666H6.22Z"/>
    <path d="M8.499 16.809a1 1 0 0 1 2 0v3.649a1 1 0 0 1-2 0v-3.649ZM6.571 24.566a.75.75 0 0 1 1.5 0v1.049a.75.75 0 0 1-1.5 0v-1.049ZM10.926 24.566a.75.75 0 0 1 1.5 0v1.049a.75.75 0 0 1-1.5 0v-1.049Z"/>
  </g>
</svg>
