<?xml version="1.0" encoding="UTF-8" standalone="no"?>
<svg
   width="24"
   height="24"
   fill="none"
   version="1.1"
   id="svg1922"
   sodipodi:docname="close_left_panel-converted.svg"
   xmlns:inkscape="http://www.inkscape.org/namespaces/inkscape"
   xmlns:sodipodi="http://sodipodi.sourceforge.net/DTD/sodipodi-0.dtd"
   xmlns="http://www.w3.org/2000/svg"
   xmlns:svg="http://www.w3.org/2000/svg">
  <path
     d="M 3.654,1.059 A 2.605,2.605 0 0 0 2.82,1.331 3.227,3.227 0 0 0 1.304,2.878 C 0.998,3.516 1.02,2.804 1.02,12 c 0,7.75 0.004,8.237 0.071,8.524 0.27,1.148 1.237,2.115 2.385,2.385 0.287,0.067 0.774,0.071 8.524,0.071 7.75,0 8.237,-0.004 8.524,-0.071 1.148,-0.27 2.115,-1.237 2.385,-2.385 C 22.976,20.237 22.98,19.75 22.98,12 22.98,4.25 22.976,3.763 22.909,3.476 22.646,2.357 21.747,1.433 20.606,1.107 L 20.3,1.02 12.12,1.013 C 5.545,1.008 3.884,1.017 3.654,1.059 M 7.68,12 v 9 H 5.842 C 4.083,21 3.993,20.996 3.783,20.918 A 1.405,1.405 0 0 1 3.113,20.315 L 3.02,20.14 3.01,12.086 C 3.003,6.68 3.013,3.981 3.04,3.879 3.131,3.543 3.524,3.139 3.854,3.044 3.923,3.024 4.813,3.006 5.83,3.004 L 7.68,3 v 9 M 20.22,3.083 c 0.298,0.112 0.585,0.399 0.697,0.697 L 21,4.003 V 19.997 L 20.917,20.22 A 1.28,1.28 0 0 1 20.22,20.917 C 19.998,21 19.97,21 14.838,21 H 9.68 V 3 h 5.158 c 5.132,0 5.16,0 5.382,0.083 m -4.105,4.652 a 1.304,1.304 0 0 0 -0.26,0.135 c -0.063,0.046 -0.9,0.873 -1.859,1.837 -1.562,1.569 -1.752,1.774 -1.81,1.95 a 0.982,0.982 0 0 0 0,0.686 c 0.059,0.177 0.247,0.379 1.87,2.003 0.993,0.993 1.867,1.837 1.943,1.875 0.232,0.116 0.589,0.124 0.835,0.018 0.505,-0.217 0.745,-0.847 0.505,-1.327 -0.036,-0.073 -0.689,-0.757 -1.452,-1.522 L 14.5,12 15.886,10.61 C 16.649,9.845 17.302,9.161 17.338,9.088 17.573,8.619 17.349,8.002 16.863,7.775 a 1.031,1.031 0 0 0 -0.748,-0.04"
/>
</svg>
