<?xml version="1.0" encoding="UTF-8" standalone="no"?>
<svg width="100%" height="100%" viewBox="0 0 32 32" version="1.1" xmlns="http://www.w3.org/2000/svg" xmlns:xlink="http://www.w3.org/1999/xlink" xml:space="preserve" xmlns:serif="http://www.serif.com/" style="fill-rule:evenodd;clip-rule:evenodd;stroke-linejoin:round;stroke-miterlimit:2;">
    <g>
        <path d="M0,16C0,11.757 1.686,7.687 4.686,4.686C7.687,1.686 11.757,0 16,0C20.243,0 24.313,1.686 27.314,4.686C30.314,7.687 32,11.757 32,16C32,20.243 30.314,24.313 27.314,27.314C24.313,30.314 20.243,32 16,32C11.757,32 7.687,30.314 4.686,27.314C1.686,24.313 0,20.243 0,16ZM2,16C2,19.713 3.475,23.274 6.101,25.899C8.726,28.525 12.287,30 16,30C19.713,30 23.274,28.525 25.899,25.899C28.525,23.274 30,19.713 30,16C30,12.287 28.525,8.726 25.899,6.101C23.274,3.475 19.713,2 16,2C12.287,2 8.726,3.475 6.101,6.101C3.475,8.726 2,12.287 2,16Z" style="fill:rgb(34,34,34);"/>
        <path d="M24.389,10.338C24.389,10.339 24.387,10.342 24.387,10.343L21.034,20.402C20.925,20.73 20.653,20.979 20.315,21.059C19.978,21.138 19.624,21.038 19.379,20.793L11.208,12.622C10.963,12.377 10.862,12.022 10.942,11.685C11.021,11.348 11.27,11.076 11.598,10.966C11.598,10.966 21.657,7.606 21.652,7.608C22.033,7.478 22.443,7.458 22.835,7.549C23.227,7.641 23.586,7.84 23.871,8.125C24.155,8.409 24.355,8.768 24.446,9.16C24.537,9.55 24.517,9.958 24.389,10.338ZM22.494,9.699C22.503,9.672 22.504,9.642 22.498,9.614C22.491,9.585 22.477,9.559 22.456,9.539C22.436,9.518 22.41,9.504 22.381,9.497C22.353,9.491 22.323,9.492 22.296,9.501L22.291,9.503L13.765,12.351L19.649,18.234L22.492,9.705L22.494,9.699Z" style="fill:rgb(34,34,34);"/>
        <path d="M10.966,11.598C11.141,11.075 11.707,10.791 12.231,10.966C12.755,11.141 13.038,11.707 12.863,12.231L9.507,22.295L9.505,22.3C9.496,22.328 9.495,22.358 9.501,22.386C9.508,22.414 9.522,22.441 9.543,22.461C9.563,22.482 9.589,22.496 9.618,22.503C9.646,22.509 9.676,22.508 9.703,22.498L9.709,22.497L19.773,19.142C20.297,18.967 20.863,19.251 21.038,19.774C21.213,20.298 20.929,20.865 20.406,21.039C20.406,21.039 10.342,24.394 10.347,24.392C9.966,24.522 9.556,24.542 9.164,24.451C8.772,24.359 8.413,24.16 8.129,23.875C7.844,23.591 7.645,23.232 7.553,22.84C7.462,22.448 7.482,22.038 7.61,21.662L10.966,11.598Z" style="fill:rgb(34,34,34);"/>
    </g>
</svg>
