<svg width="17" height="16" viewBox="0 0 17 16" fill="none" xmlns="http://www.w3.org/2000/svg">
<mask id="mask0_215_2475" style="mask-type:alpha" maskUnits="userSpaceOnUse" x="0" y="0" width="17" height="16">
<rect x="0.5" width="16" height="16" fill="#D9D9D9"/>
</mask>
<g mask="url(#mask0_215_2475)">
<path d="M8.50001 10.4L5.30001 7.20002L6.15001 6.35002L7.90001 8.10002V2.40002H9.10001V8.10002L10.85 6.35002L11.7 7.20002L8.50001 10.4ZM4.8953 12.8C4.56511 12.8 4.28335 12.6825 4.05001 12.4475C3.81668 12.2125 3.70001 11.93 3.70001 11.6V10.4H4.90001V11.6H12.1V10.4H13.3V11.6C13.3 11.93 13.1824 12.2125 12.9473 12.4475C12.7122 12.6825 12.4295 12.8 12.0993 12.8H4.8953Z" fill="white"/>
</g>
</svg>
