<svg width="20" height="20" viewBox="0 0 20 20" fill="none"
    xmlns="http://www.w3.org/2000/svg">
    <mask id="mask0_877_6" style="mask-type:alpha" maskUnits="userSpaceOnUse" x="0" y="0" width="20" height="20">
        <rect width="20" height="20" fill="#D9D9D9"/>
    </mask>
    <g mask="url(#mask0_877_6)">
        <path d="M3.33366 16.6668C2.87533 16.6668 2.48296 16.5036 2.15658 16.1772C1.83019 15.8509 1.66699 15.4585 1.66699 15.0002V5.00016C1.66699 4.54183 1.83019 4.14947 2.15658 3.82308C2.48296 3.49669 2.87533 3.3335 3.33366 3.3335H7.64616C7.86838 3.3335 8.08019 3.37516 8.28158 3.4585C8.48296 3.54183 8.66005 3.65988 8.81283 3.81266L10.0003 5.00016H16.667C17.1253 5.00016 17.5177 5.16336 17.8441 5.48975C18.1705 5.81613 18.3337 6.2085 18.3337 6.66683V8.3335C18.3337 8.56961 18.2538 8.76752 18.0941 8.92725C17.9344 9.08697 17.7364 9.16683 17.5003 9.16683C17.2642 9.16683 17.0663 9.08697 16.9066 8.92725C16.7469 8.76752 16.667 8.56961 16.667 8.3335V6.66683H9.31283L7.64616 5.00016H3.33366V15.0002H9.16699C9.4031 15.0002 9.60102 15.08 9.76074 15.2397C9.92046 15.3995 10.0003 15.5974 10.0003 15.8335C10.0003 16.0696 9.92046 16.2675 9.76074 16.4272C9.60102 16.587 9.4031 16.6668 9.16699 16.6668H3.33366ZM11.667 17.5002V16.1252C11.667 16.0141 11.6878 15.9064 11.7295 15.8022C11.7712 15.6981 11.8337 15.6043 11.917 15.521L16.2712 11.1877C16.3962 11.0627 16.535 10.9724 16.6878 10.9168C16.8406 10.8613 16.9934 10.8335 17.1462 10.8335C17.3128 10.8335 17.4725 10.8647 17.6253 10.9272C17.7781 10.9897 17.917 11.0835 18.042 11.2085L18.8128 11.9793C18.9239 12.1043 19.0107 12.2432 19.0732 12.396C19.1357 12.5488 19.167 12.7016 19.167 12.8543C19.167 13.0071 19.1392 13.1634 19.0837 13.3231C19.0281 13.4828 18.9378 13.6252 18.8128 13.7502L14.4795 18.0835C14.3962 18.1668 14.3024 18.2293 14.1982 18.271C14.0941 18.3127 13.9864 18.3335 13.8753 18.3335H12.5003C12.2642 18.3335 12.0663 18.2536 11.9066 18.0939C11.7469 17.9342 11.667 17.7363 11.667 17.5002ZM12.917 17.0835H13.7087L16.2295 14.5418L15.8545 14.146L15.4587 13.771L12.917 16.2918V17.0835ZM15.8545 14.146L15.4587 13.771L16.2295 14.5418L15.8545 14.146Z" fill="#1C1B1F"/>
    </g>
</svg>
