<svg width="18" height="18" viewBox="0 0 18 18" fill="none" xmlns="http://www.w3.org/2000/svg">
<mask id="mask0_508_1425" style="mask-type:alpha" maskUnits="userSpaceOnUse" x="0" y="0" width="18" height="18">
<rect width="18" height="18" fill="#D9D9D9"/>
</mask>
<g mask="url(#mask0_508_1425)">
<path d="M4.28097 14.925C3.94337 14.925 3.65801 14.8085 3.42488 14.5753C3.19176 14.3422 3.0752 14.0569 3.0752 13.7193V4.28085C3.0752 3.94325 3.19176 3.65789 3.42488 3.42476C3.65801 3.19164 3.94337 3.07507 4.28097 3.07507H8.71169V4.05005H4.28097C4.22327 4.05005 4.17038 4.07409 4.12229 4.12217C4.07421 4.17026 4.05018 4.22315 4.05018 4.28085V13.7193C4.05018 13.777 4.07421 13.8299 4.12229 13.8779C4.17038 13.926 4.22327 13.9501 4.28097 13.9501H13.7194C13.7771 13.9501 13.83 13.926 13.8781 13.8779C13.9261 13.8299 13.9502 13.777 13.9502 13.7193V9.28854H14.9252V13.7193C14.9252 14.0569 14.8086 14.3422 14.5755 14.5753C14.3423 14.8085 14.057 14.925 13.7194 14.925H4.28097ZM7.27085 11.426L6.57423 10.7294L13.2536 4.05005H10.8002V3.07507H14.9252V7.20005H13.9502V4.74667L7.27085 11.426Z" fill="#155EEF"/>
</g>
</svg>
