<svg width="48" height="48" viewBox="0 0 48 48" fill="none" xmlns="http://www.w3.org/2000/svg">
<mask id="mask0_283_2614" style="mask-type:alpha" maskUnits="userSpaceOnUse" x="0" y="0" width="48" height="48">
<rect width="48" height="48" fill="#D9D9D9"/>
</mask>
<g mask="url(#mask0_283_2614)">
<path d="M8 40C6.9 40 5.95833 39.6083 5.175 38.825C4.39167 38.0417 4 37.1 4 36V12C4 10.9 4.39167 9.95833 5.175 9.175C5.95833 8.39167 6.9 8 8 8H18.35C18.8833 8 19.3917 8.1 19.875 8.3C20.3583 8.5 20.7833 8.78333 21.15 9.15L24 12H40C41.1 12 42.0417 12.3917 42.825 13.175C43.6083 13.9583 44 14.9 44 16V36C44 37.1 43.6083 38.0417 42.825 38.825C42.0417 39.6083 41.1 40 40 40H8ZM8 36H40V16H22.35L18.35 12H8V36Z" fill="#667085"/>
</g>
</svg>
