<svg width="15" height="16" viewBox="0 0 15 16" fill="none" xmlns="http://www.w3.org/2000/svg">
<mask id="mask0_215_2125" style="mask-type:alpha" maskUnits="userSpaceOnUse" x="0" y="0" width="15" height="16">
<rect y="0.5" width="15" height="15" fill="#D9D9D9"/>
</mask>
<g mask="url(#mask0_215_2125)">
<path d="M7.09375 10.8437H7.90622V7.25H7.09375V10.8437ZM7.49669 6.3053C7.62108 6.3053 7.72645 6.26323 7.81278 6.17909C7.89912 6.09495 7.94228 5.99068 7.94228 5.8663C7.94228 5.74191 7.90021 5.63655 7.81606 5.5502C7.73193 5.46387 7.62767 5.4207 7.50328 5.4207C7.37889 5.4207 7.27352 5.46278 7.18719 5.54692C7.10085 5.63107 7.05769 5.73533 7.05769 5.85972C7.05769 5.9841 7.09976 6.08946 7.18391 6.1758C7.26804 6.26213 7.3723 6.3053 7.49669 6.3053ZM7.50534 13.6875C6.72293 13.6875 5.98605 13.5395 5.29472 13.2434C4.60338 12.9474 3.99826 12.54 3.47938 12.0214C2.96048 11.5027 2.55294 10.8981 2.25677 10.2075C1.96059 9.51695 1.8125 8.77907 1.8125 7.99389C1.8125 7.2087 1.96052 6.47305 2.25656 5.78692C2.5526 5.10079 2.95995 4.49828 3.47859 3.97939C3.99725 3.4605 4.60187 3.05296 5.29245 2.75678C5.98304 2.4606 6.72092 2.31252 7.50609 2.31252C8.29128 2.31252 9.02694 2.46054 9.71306 2.75658C10.3992 3.05262 11.0017 3.45996 11.5206 3.97861C12.0395 4.49727 12.447 5.10067 12.7432 5.78881C13.0394 6.47696 13.1875 7.21223 13.1875 7.99464C13.1875 8.77706 13.0394 9.51393 12.7434 10.2053C12.4474 10.8966 12.04 11.5017 11.5214 12.0206C11.0027 12.5395 10.3993 12.947 9.71117 13.2432C9.02303 13.5394 8.28775 13.6875 7.50534 13.6875ZM7.49998 12.875C8.85415 12.875 10.0052 12.401 10.9531 11.4531C11.901 10.5052 12.375 9.35417 12.375 8C12.375 6.64583 11.901 5.49479 10.9531 4.54688C10.0052 3.59896 8.85415 3.125 7.49998 3.125C6.14582 3.125 4.99478 3.59896 4.04686 4.54688C3.09894 5.49479 2.62498 6.64583 2.62498 8C2.62498 9.35417 3.09894 10.5052 4.04686 11.4531C4.99478 12.401 6.14582 12.875 7.49998 12.875Z" fill="#1849A9"/>
</g>
</svg>
