<svg viewBox="0 0 24 24" fill="none" xmlns="http://www.w3.org/2000/svg"><g id="SVGRepo_bgCarrier" stroke-width="0"></g><g id="SVGRepo_tracerCarrier" stroke-linecap="round" stroke-linejoin="round"></g><g id="SVGRepo_iconCarrier"> <path fill-rule="evenodd" clip-rule="evenodd" d="M3.5155 15.7248C3.78702 15.7062 4.13391 15.7059 4.63158 15.7059H19.3684C19.8661 15.7059 20.213 15.7062 20.4845 15.7248C20.7513 15.7431 20.9067 15.7774 21.0253 15.8268C21.4122 15.988 21.7196 16.2972 21.8798 16.6863C21.9289 16.8056 21.963 16.9619 21.9812 17.2303C21.9997 17.5034 22 17.8523 22 18.3529C22 18.8535 21.9997 19.2025 21.9812 19.4756C21.963 19.744 21.9289 19.9002 21.8798 20.0196C21.7196 20.4087 21.4122 20.7179 21.0253 20.8791C20.9067 20.9285 20.7513 20.9628 20.4845 20.9811C20.213 20.9997 19.8661 21 19.3684 21H4.63158C4.13391 21 3.78702 20.9997 3.5155 20.9811C3.2487 20.9628 3.09333 20.9285 2.97471 20.8791C2.58782 20.7179 2.28044 20.4087 2.12019 20.0196C2.07105 19.9002 2.03701 19.744 2.01881 19.4756C2.00028 19.2025 2 18.8535 2 18.3529C2 17.8523 2.00028 17.5034 2.01881 17.2303C2.03701 16.9619 2.07105 16.8056 2.12019 16.6863C2.28044 16.2972 2.58782 15.988 2.97471 15.8268C3.09333 15.7774 3.2487 15.7431 3.5155 15.7248ZM4.63158 19.4118C5.21293 19.4118 5.68421 18.9377 5.68421 18.3529C5.68421 17.7682 5.21293 17.2941 4.63158 17.2941C4.05023 17.2941 3.57895 17.7682 3.57895 18.3529C3.57895 18.9377 4.05023 19.4118 4.63158 19.4118Z" fill="#1C274C"></path> <path fill-rule="evenodd" clip-rule="evenodd" d="M4.63158 8.29412C4.13391 8.29412 3.78702 8.29383 3.5155 8.2752C3.2487 8.25689 3.09333 8.22265 2.97471 8.17322C2.58782 8.01202 2.28044 7.70284 2.12019 7.31367C2.07105 7.19435 2.03701 7.03807 2.01881 6.7697C2.00028 6.49658 2 6.14765 2 5.64706C2 5.14647 2.00028 4.79753 2.01881 4.52441C2.03701 4.25605 2.07105 4.09977 2.12019 3.98044C2.28044 3.59128 2.58782 3.28209 2.97471 3.1209C3.09333 3.07147 3.2487 3.03723 3.5155 3.01892C3.78702 3.00029 4.13391 3 4.63158 3H19.3684C19.8661 3 20.213 3.00029 20.4845 3.01892C20.7513 3.03723 20.9067 3.07147 21.0253 3.1209C21.4122 3.28209 21.7196 3.59128 21.8798 3.98044C21.9289 4.09977 21.963 4.25605 21.9812 4.52441C21.9997 4.79753 22 5.14647 22 5.64706C22 6.14765 21.9997 6.49658 21.9812 6.7697C21.963 7.03807 21.9289 7.19435 21.8798 7.31367C21.7196 7.70284 21.4122 8.01202 21.0253 8.17322C20.9067 8.22265 20.7513 8.25689 20.4845 8.2752C20.213 8.29383 19.8661 8.29412 19.3684 8.29412H4.63158ZM4.63158 9.35294C4.13391 9.35294 3.78702 9.35323 3.5155 9.37186C3.2487 9.39017 3.09333 9.42441 2.97471 9.47384C2.58782 9.63503 2.28044 9.94422 2.12019 10.3334C2.07105 10.4527 2.03701 10.609 2.01881 10.8774C2.00028 11.1505 2 11.4994 2 12C2 12.5006 2.00028 12.8495 2.01881 13.1226C2.03701 13.391 2.07105 13.5473 2.12019 13.6666C2.28044 14.0558 2.58782 14.365 2.97471 14.5262C3.09333 14.5756 3.2487 14.6098 3.5155 14.6281C3.78702 14.6468 4.13391 14.6471 4.63158 14.6471H19.3684C19.8661 14.6471 20.213 14.6468 20.4845 14.6281C20.7513 14.6098 20.9067 14.5756 21.0253 14.5262C21.4122 14.365 21.7196 14.0558 21.8798 13.6666C21.9289 13.5473 21.963 13.391 21.9812 13.1226C21.9997 12.8495 22 12.5006 22 12C22 11.4994 21.9997 11.1505 21.9812 10.8774C21.963 10.609 21.9289 10.4527 21.8798 10.3334C21.7196 9.94422 21.4122 9.63503 21.0253 9.47384C20.9067 9.42441 20.7513 9.39017 20.4845 9.37186C20.213 9.35323 19.8661 9.35294 19.3684 9.35294H4.63158ZM5.68421 12C5.68421 12.5848 5.21293 13.0588 4.63158 13.0588C4.05023 13.0588 3.57895 12.5848 3.57895 12C3.57895 11.4152 4.05023 10.9412 4.63158 10.9412C5.21293 10.9412 5.68421 11.4152 5.68421 12ZM4.63158 6.70588C5.21293 6.70588 5.68421 6.23183 5.68421 5.64706C5.68421 5.06229 5.21293 4.58824 4.63158 4.58824C4.05023 4.58824 3.57895 5.06229 3.57895 5.64706C3.57895 6.23183 4.05023 6.70588 4.63158 6.70588Z" fill="#1C274C"></path> </g></svg>