<?xml version="1.0" encoding="UTF-8"?>
<svg version="1.1" xmlns="http://www.w3.org/2000/svg" width="1024" height="1024">
<path d="M0 0 C1.55348279 -0.008994 3.10696484 -0.01811621 4.66044617 -0.02735901 C7.91240523 -0.0437873 11.16426222 -0.05153639 14.41625977 -0.05444336 C17.71053564 -0.05872889 21.0040214 -0.07943438 24.2980957 -0.1159668 C59.20374047 -0.49623838 59.20374047 -0.49623838 76.07421875 5.37109375 C77.70081191 5.90118352 79.32794056 6.42963256 80.95556641 6.95654297 C99.36838254 13.03233131 116.83532471 22.40484758 132.07421875 34.37109375 C133.37166016 35.33789062 133.37166016 35.33789062 134.6953125 36.32421875 C149.46799554 47.74662816 162.93312292 61.68109643 173.07421875 77.37109375 C173.66420654 78.27456543 173.66420654 78.27456543 174.26611328 79.19628906 C190.79545435 104.80282895 202.29566303 135.81058089 202.20703125 166.5625 C202.20798798 167.31144028 202.2089447 168.06038055 202.20993042 168.83201599 C202.21060583 170.40257858 202.20879655 171.97314407 202.20458984 173.54370117 C202.19922482 175.9308912 202.20456056 178.31789378 202.2109375 180.70507812 C202.21027675 182.24088583 202.20899566 183.77669341 202.20703125 185.3125 C202.20905548 186.01685684 202.21107971 186.72121368 202.21316528 187.44691467 C202.19252051 191.86367619 201.78721471 196.02620822 201.07421875 200.37109375 C201.60273437 200.21769531 202.13125 200.06429687 202.67578125 199.90625 C243.21228574 190.86145991 291.06653044 205.68652451 325.42114258 226.97412109 C366.12404429 253.02011302 395.53322235 294.30865634 406.32421875 341.37109375 C414.55795988 379.76340179 409.99482556 419.92728474 393.07421875 455.37109375 C392.55819092 456.45680664 392.55819092 456.45680664 392.03173828 457.56445312 C388.02717508 465.84615119 383.45052759 473.63036465 378.19921875 481.18359375 C377.53164551 482.15063232 377.53164551 482.15063232 376.85058594 483.13720703 C368.70492616 494.48233584 358.32998958 504.26850147 348.46875 514.109375 C347.29279822 515.28600307 346.11699468 516.46277932 344.94132996 517.63969421 C342.50001925 520.0824643 340.05694758 522.52345491 337.61254883 524.96313477 C334.49940655 528.0705553 331.39081167 531.18248031 328.28351307 534.29574299 C325.86509144 536.71779649 323.44427066 539.13744083 321.02274132 541.55638695 C319.87589096 542.70257661 318.72976517 543.84949177 317.58442116 544.99718666 C312.2135474 550.37667556 306.83199314 555.67043636 301.05229187 560.61540222 C296.83329625 564.36008426 292.91811174 568.42794514 288.94921875 572.43359375 C287.99362505 573.3936075 287.03772691 574.35331828 286.08154297 575.31274414 C283.07624325 578.32935744 280.07492263 581.34990971 277.07421875 584.37109375 C273.59128864 587.87779526 270.10665373 591.38276841 266.61773682 594.8835144 C265.23768742 596.26994715 263.86074131 597.65946673 262.48388672 599.04907227 C258.15477941 603.39491476 253.76448931 607.56264791 249.11206055 611.55810547 C244.9530892 615.25817989 241.08409238 619.26154573 237.16796875 623.21484375 C235.75558943 624.63301025 234.34320714 626.05117382 232.93065643 627.46916962 C230.47634374 629.93432507 228.02537342 632.40279884 225.57421875 634.87109375 C222.64484672 637.82095006 219.7148559 640.77017214 216.78088379 643.7154541 C214.96201262 645.54177804 213.14539223 647.37034736 211.3314209 649.20153809 C207.67541706 652.87201416 204.01911798 656.48132461 200.08789062 659.85742188 C195.12006109 664.12597659 190.55686263 668.78327883 185.94921875 673.43359375 C184.99362505 674.3936075 184.03772691 675.35331828 183.08154297 676.31274414 C180.07624325 679.32935744 177.07492263 682.34990971 174.07421875 685.37109375 C170.59128864 688.87779526 167.10665373 692.38276841 163.61773682 695.8835144 C162.23768742 697.26994715 160.86074131 698.65946673 159.48388672 700.04907227 C155.15477941 704.39491476 150.76448931 708.56264791 146.11206055 712.55810547 C141.9530892 716.25817989 138.08409238 720.26154573 134.16796875 724.21484375 C132.75558943 725.63301025 131.34320714 727.05117382 129.93065643 728.46916962 C127.47634374 730.93432507 125.02537342 733.40279884 122.57421875 735.87109375 C119.64484672 738.82095006 116.7148559 741.77017214 113.78088379 744.7154541 C111.96201262 746.54177804 110.14539223 748.37034736 108.3314209 750.20153809 C104.67541706 753.87201416 101.01911798 757.48132461 97.08789062 760.85742188 C92.12006109 765.12597659 87.55686263 769.78327883 82.94921875 774.43359375 C81.99362505 775.3936075 81.03772691 776.35331828 80.08154297 777.31274414 C77.07624325 780.32935744 74.07492263 783.34990971 71.07421875 786.37109375 C67.59128864 789.87779526 64.10665373 793.38276841 60.61773682 796.8835144 C59.23768742 798.26994715 57.86074131 799.65946673 56.48388672 801.04907227 C52.15477941 805.39491476 47.76448931 809.56264791 43.11206055 813.55810547 C38.9530892 817.25817989 35.08409238 821.26154573 31.16796875 825.21484375 C29.75558943 826.63301025 28.34320714 828.05117382 26.93065643 829.46916962 C24.47634374 831.93432507 22.02537342 834.40279884 19.57421875 836.87109375 C16.64484672 839.82095006 13.7148559 842.77017214 10.78088379 845.7154541 C8.96201262 847.54177804 7.14539223 849.37034736 5.3314209 851.20153809 C0.9628841 855.58736767 -3.45298557 859.82416774 -8.18835449 863.81359863 C-12.49959419 867.6783571 -16.66980056 871.70889455 -17.23828125 877.62109375 C-16.42947356 887.32678605 -6.35534949 894.45333837 0.61816406 900.40844727 C5.70965462 904.85465935 10.44347205 909.63380444 15.19921875 914.43359375 C16.15481245 915.3936075 17.11071059 916.35331828 18.06689453 917.31274414 C21.57972467 920.83879848 25.08702448 924.37033665 28.59448242 927.9017334 C31.57087392 930.89800583 34.54941032 933.89211606 37.53070068 936.8835144 C38.91075008 938.26994715 40.28769619 939.65946673 41.66455078 941.04907227 C46.08811898 945.48974081 50.56003081 949.79746226 55.32617188 953.87011719 C64.2383277 961.52262194 71.36587357 970.4282358 72.32421875 982.52734375 C72.69553816 993.20277669 70.6600854 1002.18510152 63.83984375 1010.58984375 C56.20010891 1018.29718686 46.27615849 1022.40532932 35.51171875 1022.68359375 C15.95763885 1022.44337164 4.74047656 1008.29776778 -7.98828125 995.37109375 C-10.12599268 993.20555069 -12.26524434 991.04158651 -14.40757751 988.88061523 C-15.73172074 987.54443783 -17.05318794 986.20560058 -18.37135315 984.86352539 C-21.41784078 981.78447474 -24.50843577 978.82183771 -27.7890625 975.99243164 C-35.55423426 969.28742342 -42.70593447 961.89588104 -49.97924805 954.66772461 C-51.89324602 952.76702336 -53.8142296 950.87384794 -55.74194336 948.98706055 C-75.52583197 929.59245197 -91.61577608 909.57106409 -92.16723633 880.47363281 C-92.28681797 851.04971595 -79.25812944 830.81235235 -59.25073242 810.57893372 C-55.94229178 807.24911948 -52.62333842 803.92998038 -49.30004883 800.61499023 C-46.72946814 798.04979912 -44.16431532 795.47926644 -41.59960938 792.90820312 C-39.94433117 791.25358531 -38.288743 789.5992775 -36.6328125 787.9453125 C-35.87740677 787.18788254 -35.12200104 786.43045258 -34.34370422 785.65007019 C-30.98713284 782.30809898 -27.60845327 779.05046167 -24.0144043 775.96411133 C-19.02730705 771.66259494 -14.43394434 766.98466422 -9.80078125 762.30859375 C-8.84518755 761.34858 -7.88928941 760.38886922 -6.93310547 759.42944336 C-3.92780575 756.41283006 -0.92648513 753.39227779 2.07421875 750.37109375 C5.55714886 746.86439224 9.04178377 743.35941909 12.53070068 739.8586731 C13.91075008 738.47224035 15.28769619 737.08272077 16.66455078 735.69311523 C20.98932334 731.35162424 25.37527743 727.1889643 30.02294922 723.19750977 C34.2619326 719.42319 38.20585095 715.33894383 42.19921875 711.30859375 C43.15481245 710.34858 44.11071059 709.38886922 45.06689453 708.42944336 C48.07219425 705.41283006 51.07351487 702.39227779 54.07421875 699.37109375 C57.55714886 695.86439224 61.04178377 692.35941909 64.53070068 688.8586731 C65.91075008 687.47224035 67.28769619 686.08272077 68.66455078 684.69311523 C72.98932334 680.35162424 77.37527743 676.1889643 82.02294922 672.19750977 C86.2619326 668.42319 90.20585095 664.33894383 94.19921875 660.30859375 C95.15481245 659.34858 96.11071059 658.38886922 97.06689453 657.42944336 C100.07219425 654.41283006 103.07351487 651.39227779 106.07421875 648.37109375 C109.55714886 644.86439224 113.04178377 641.35941909 116.53070068 637.8586731 C117.91075008 636.47224035 119.28769619 635.08272077 120.66455078 633.69311523 C124.99365809 629.34727274 129.38394819 625.17953959 134.03637695 621.18408203 C138.1953483 617.48400761 142.06434512 613.48064177 145.98046875 609.52734375 C147.39284807 608.10917725 148.80523036 606.69101368 150.21778107 605.27301788 C152.67209376 602.80786243 155.12306408 600.33938866 157.57421875 597.87109375 C160.50359078 594.92123744 163.4335816 591.97201536 166.36755371 589.0267334 C168.18642488 587.20040946 170.00304527 585.37184014 171.8170166 583.54064941 C175.47302044 579.87017334 179.12931952 576.26086289 183.06054688 572.88476562 C188.02837641 568.61621091 192.59157487 563.95890867 197.19921875 559.30859375 C198.15481245 558.34858 199.11071059 557.38886922 200.06689453 556.42944336 C203.07219425 553.41283006 206.07351487 550.39227779 209.07421875 547.37109375 C212.55714886 543.86439224 216.04178377 540.35941909 219.53070068 536.8586731 C220.91075008 535.47224035 222.28769619 534.08272077 223.66455078 532.69311523 C227.98932334 528.35162424 232.37527743 524.1889643 237.02294922 520.19750977 C241.2619326 516.42319 245.20585095 512.33894383 249.19921875 508.30859375 C250.15481245 507.34858 251.11071059 506.38886922 252.06689453 505.42944336 C255.07219425 502.41283006 258.07351487 499.39227779 261.07421875 496.37109375 C264.55714886 492.86439224 268.04178377 489.35941909 271.53070068 485.8586731 C272.91075008 484.47224035 274.28769619 483.08272077 275.66455078 481.69311523 C280.10358223 477.23692366 284.60139867 472.93435899 289.3742981 468.83724976 C309.06254676 451.8564313 325.20520053 431.74605519 332.07421875 406.37109375 C332.39261719 405.23929687 332.71101562 404.1075 333.0390625 402.94140625 C339.66501146 375.52158059 333.84003678 346.66302376 319.34375 322.79296875 C315.52117895 316.82819003 310.84113942 311.5886539 306.07421875 306.37109375 C305.41808594 305.63246094 304.76195312 304.89382813 304.0859375 304.1328125 C287.32652727 286.22500585 261.27287109 273.70572967 236.81298828 272.16577148 C233.31392652 272.06783783 229.82459588 272.04192642 226.32421875 272.05859375 C225.08502686 272.0642334 223.84583496 272.06987305 222.5690918 272.07568359 C213.6889301 272.19348701 205.61935506 272.79584719 197.07421875 275.37109375 C196.41486328 275.56445312 195.75550781 275.7578125 195.07617188 275.95703125 C163.69763859 285.36188304 142.71372309 308.56440846 120.26171875 331.18359375 C116.63317124 334.83889905 113.00120173 338.49075543 109.3671875 342.140625 C108.55243454 342.9636763 107.73768158 343.7867276 106.89823914 344.63471985 C103.39897204 348.14883862 99.88936792 351.58743158 96.1262207 354.8190918 C91.14760244 359.10287755 86.56965327 363.77036974 81.94921875 368.43359375 C80.99362505 369.3936075 80.03772691 370.35331828 79.08154297 371.31274414 C76.07624325 374.32935744 73.07492263 377.34990971 70.07421875 380.37109375 C66.59128864 383.87779526 63.10665373 387.38276841 59.61773682 390.8835144 C58.23768742 392.26994715 56.86074131 393.65946673 55.48388672 395.04907227 C51.15911416 399.39056326 46.77316007 403.5532232 42.12548828 407.54467773 C37.8865049 411.3189975 33.94258655 415.40324367 29.94921875 419.43359375 C28.99362505 420.3936075 28.03772691 421.35331828 27.08154297 422.31274414 C24.07624325 425.32935744 21.07492263 428.34990971 18.07421875 431.37109375 C14.59128864 434.87779526 11.10665373 438.38276841 7.61773682 441.8835144 C6.23768742 443.26994715 4.86074131 444.65946673 3.48388672 446.04907227 C-0.84088584 450.39056326 -5.22683993 454.5532232 -9.87451172 458.54467773 C-14.1134951 462.3189975 -18.05741345 466.40324367 -22.05078125 470.43359375 C-23.00637495 471.3936075 -23.96227309 472.35331828 -24.91845703 473.31274414 C-27.92375675 476.32935744 -30.92507737 479.34990971 -33.92578125 482.37109375 C-37.40871136 485.87779526 -40.89334627 489.38276841 -44.38226318 492.8835144 C-45.76231258 494.26994715 -47.13925869 495.65946673 -48.51611328 497.04907227 C-52.84088584 501.39056326 -57.22683993 505.5532232 -61.87451172 509.54467773 C-66.1134951 513.3189975 -70.05741345 517.40324367 -74.05078125 521.43359375 C-75.00637495 522.3936075 -75.96227309 523.35331828 -76.91845703 524.31274414 C-79.92375675 527.32935744 -82.92507737 530.34990971 -85.92578125 533.37109375 C-89.40871136 536.87779526 -92.89334627 540.38276841 -96.38226318 543.8835144 C-97.76231258 545.26994715 -99.13925869 546.65946673 -100.51611328 548.04907227 C-104.22832977 551.7756392 -107.93700059 555.44510574 -111.93017578 558.87109375 C-116.88177412 563.12342944 -121.40551507 567.78371383 -125.98046875 572.43359375 C-126.93111662 573.39375907 -127.88222693 574.35346672 -128.83377075 575.31274414 C-132.83292106 579.34509324 -136.82773089 583.38166515 -140.81201172 587.42871094 C-143.26554312 589.92027661 -145.72665913 592.40414191 -148.1925087 594.8835144 C-149.56375767 596.2665249 -150.926777 597.65767995 -152.28952026 599.04907227 C-161.41727064 608.21372831 -170.97415387 616.58118567 -184.42041016 616.89038086 C-185.16468262 616.88401611 -185.90895508 616.87765137 -186.67578125 616.87109375 C-187.46001465 616.86537354 -188.24424805 616.85965332 -189.05224609 616.85375977 C-198.83244806 616.55596194 -207.07229693 613.19422456 -214.17578125 606.38671875 C-221.54630983 597.89744923 -224.43255453 589.2698501 -224.171875 578.16796875 C-222.84693596 563.1099314 -212.72982688 553.7309788 -202.52246094 543.68652344 C-200.5553255 541.75056598 -198.59907749 539.8041278 -196.64453125 537.85546875 C-195.37692167 536.59703183 -194.10871214 535.3391989 -192.83984375 534.08203125 C-192.26561676 533.51205414 -191.69138977 532.94207703 -191.09976196 532.35482788 C-188.18798937 529.49295435 -185.22434379 526.74040467 -182.12646484 524.08056641 C-177.10934584 519.73181519 -172.4718075 515.02287802 -167.80078125 510.30859375 C-166.84518755 509.34858 -165.88928941 508.38886922 -164.93310547 507.42944336 C-161.92780575 504.41283006 -158.92648513 501.39227779 -155.92578125 498.37109375 C-152.44285114 494.86439224 -148.95821623 491.35941909 -145.46929932 487.8586731 C-144.08924992 486.47224035 -142.71230381 485.08272077 -141.33544922 483.69311523 C-137.01067666 479.35162424 -132.62472257 475.1889643 -127.97705078 471.19750977 C-123.7380674 467.42319 -119.79414905 463.33894383 -115.80078125 459.30859375 C-114.84518755 458.34858 -113.88928941 457.38886922 -112.93310547 456.42944336 C-109.92780575 453.41283006 -106.92648513 450.39227779 -103.92578125 447.37109375 C-100.44285114 443.86439224 -96.95821623 440.35941909 -93.46929932 436.8586731 C-92.08924992 435.47224035 -90.71230381 434.08272077 -89.33544922 432.69311523 C-85.01067666 428.35162424 -80.62472257 424.1889643 -75.97705078 420.19750977 C-71.7380674 416.42319 -67.79414905 412.33894383 -63.80078125 408.30859375 C-62.84518755 407.34858 -61.88928941 406.38886922 -60.93310547 405.42944336 C-57.92780575 402.41283006 -54.92648513 399.39227779 -51.92578125 396.37109375 C-48.44285114 392.86439224 -44.95821623 389.35941909 -41.46929932 385.8586731 C-40.08924992 384.47224035 -38.71230381 383.08272077 -37.33544922 381.69311523 C-33.01067666 377.35162424 -28.62472257 373.1889643 -23.97705078 369.19750977 C-19.7380674 365.42319 -15.79414905 361.33894383 -11.80078125 357.30859375 C-10.84518755 356.34858 -9.88928941 355.38886922 -8.93310547 354.42944336 C-5.92780575 351.41283006 -2.92648513 348.39227779 0.07421875 345.37109375 C3.55714886 341.86439224 7.04178377 338.35941909 10.53070068 334.8586731 C11.91075008 333.47224035 13.28769619 332.08272077 14.66455078 330.69311523 C18.98932334 326.35162424 23.37527743 322.1889643 28.02294922 318.19750977 C32.2619326 314.42319 36.20585095 310.33894383 40.19921875 306.30859375 C41.15481245 305.34858 42.11071059 304.38886922 43.06689453 303.42944336 C46.07219425 300.41283006 49.07351487 297.39227779 52.07421875 294.37109375 C55.55714886 290.86439224 59.04178377 287.35941909 62.53070068 283.8586731 C63.91075008 282.47224035 65.28769619 281.08272077 66.66455078 279.69311523 C71.09651342 275.2440198 75.58676543 270.94812972 80.35189819 266.85742188 C106.71129835 244.10978778 124.99651863 217.74564699 128.07421875 182.37109375 C129.81026916 157.67044665 121.9248667 130.46477276 105.859375 111.3984375 C104.97572266 110.39490234 104.97572266 110.39490234 104.07421875 109.37109375 C103.43355469 108.58863281 102.79289063 107.80617188 102.1328125 107 C85.53519858 87.40686828 62.15830284 75.62048347 37.07421875 71.37109375 C35.93146484 71.17386719 35.93146484 71.17386719 34.765625 70.97265625 C6.59296499 67.03167924 -22.65398743 75.20839073 -45.42578125 91.93359375 C-51.9161251 96.98532514 -57.60973513 102.85893105 -63.3203125 108.7578125 C-65.63084089 111.1210536 -67.99873918 113.33028084 -70.51831055 115.46801758 C-75.60010856 119.88784573 -80.3124646 124.65139591 -85.05078125 129.43359375 C-86.00637495 130.3936075 -86.96227309 131.35331828 -87.91845703 132.31274414 C-90.92375675 135.32935744 -93.92507737 138.34990971 -96.92578125 141.37109375 C-100.40871136 144.87779526 -103.89334627 148.38276841 -107.38226318 151.8835144 C-108.76231258 153.26994715 -110.13925869 154.65946673 -111.51611328 156.04907227 C-115.84088584 160.39056326 -120.22683993 164.5532232 -124.87451172 168.54467773 C-129.1134951 172.3189975 -133.05741345 176.40324367 -137.05078125 180.43359375 C-138.00637495 181.3936075 -138.96227309 182.35331828 -139.91845703 183.31274414 C-142.92375675 186.32935744 -145.92507737 189.34990971 -148.92578125 192.37109375 C-152.40871136 195.87779526 -155.89334627 199.38276841 -159.38226318 202.8835144 C-160.76231258 204.26994715 -162.13925869 205.65946673 -163.51611328 207.04907227 C-167.84522059 211.39491476 -172.23551069 215.56264791 -176.88793945 219.55810547 C-181.0469108 223.25817989 -184.91590762 227.26154573 -188.83203125 231.21484375 C-190.24441057 232.63301025 -191.65679286 234.05117382 -193.06934357 235.46916962 C-195.52365626 237.93432507 -197.97462658 240.40279884 -200.42578125 242.87109375 C-203.35515328 245.82095006 -206.2851441 248.77017214 -209.21911621 251.7154541 C-211.03798738 253.54177804 -212.85460777 255.37034736 -214.6685791 257.20153809 C-218.32458294 260.87201416 -221.98088202 264.48132461 -225.91210938 267.85742188 C-230.87993891 272.12597659 -235.44313737 276.78327883 -240.05078125 281.43359375 C-241.00637495 282.3936075 -241.96227309 283.35331828 -242.91845703 284.31274414 C-245.92375675 287.32935744 -248.92507737 290.34990971 -251.92578125 293.37109375 C-255.40871136 296.87779526 -258.89334627 300.38276841 -262.38226318 303.8835144 C-263.76231258 305.26994715 -265.13925869 306.65946673 -266.51611328 308.04907227 C-270.84088584 312.39056326 -275.22683993 316.5532232 -279.87451172 320.54467773 C-284.1134951 324.3189975 -288.05741345 328.40324367 -292.05078125 332.43359375 C-293.00637495 333.3936075 -293.96227309 334.35331828 -294.91845703 335.31274414 C-297.92375675 338.32935744 -300.92507737 341.34990971 -303.92578125 344.37109375 C-307.40871136 347.87779526 -310.89334627 351.38276841 -314.38226318 354.8835144 C-315.76231258 356.26994715 -317.13925869 357.65946673 -318.51611328 359.04907227 C-322.84088584 363.39056326 -327.22683993 367.5532232 -331.87451172 371.54467773 C-336.1134951 375.3189975 -340.05741345 379.40324367 -344.05078125 383.43359375 C-345.00637495 384.3936075 -345.96227309 385.35331828 -346.91845703 386.31274414 C-349.92375675 389.32935744 -352.92507737 392.34990971 -355.92578125 395.37109375 C-359.40871136 398.87779526 -362.89334627 402.38276841 -366.38226318 405.8835144 C-367.76231258 407.26994715 -369.13925869 408.65946673 -370.51611328 410.04907227 C-374.84088584 414.39056326 -379.22683993 418.5532232 -383.87451172 422.54467773 C-388.1134951 426.3189975 -392.05741345 430.40324367 -396.05078125 434.43359375 C-397.00637495 435.3936075 -397.96227309 436.35331828 -398.91845703 437.31274414 C-401.92375675 440.32935744 -404.92507737 443.34990971 -407.92578125 446.37109375 C-411.40871136 449.87779526 -414.89334627 453.38276841 -418.38226318 456.8835144 C-419.76231258 458.26994715 -421.13925869 459.65946673 -422.51611328 461.04907227 C-426.90253413 465.45244986 -431.351709 469.68232072 -436.06695557 473.73043823 C-439.1716517 476.47073652 -442.03532639 479.43612595 -444.91796875 482.40625 C-446.21308959 483.72375184 -447.50867687 485.0407953 -448.8046875 486.35742188 C-450.80578223 488.39553759 -452.80360341 490.43649993 -454.79345703 492.4855957 C-465.86812523 503.87297648 -476.16378335 513.95194661 -493.00390625 514.46484375 C-504.28388698 513.8863832 -513.74742863 509.74967076 -521.61328125 501.62890625 C-527.49292137 494.5439399 -530.76451551 485.2301327 -530.3046875 476.00390625 C-527.7820709 458.47562185 -516.28685802 447.33926215 -503.36108398 436.31298828 C-498.27560536 431.87476162 -493.54962861 427.10141983 -488.80078125 422.30859375 C-487.84518755 421.34858 -486.88928941 420.38886922 -485.93310547 419.42944336 C-482.92780575 416.41283006 -479.92648513 413.39227779 -476.92578125 410.37109375 C-473.44285114 406.86439224 -469.95821623 403.35941909 -466.46929932 399.8586731 C-465.08924992 398.47224035 -463.71230381 397.08272077 -462.33544922 395.69311523 C-458.00634191 391.34727274 -453.61605181 387.17953959 -448.96362305 383.18408203 C-444.8046517 379.48400761 -440.93565488 375.48064177 -437.01953125 371.52734375 C-435.60715193 370.10917725 -434.19476964 368.69101368 -432.78221893 367.27301788 C-430.32790624 364.80786243 -427.87693592 362.33938866 -425.42578125 359.87109375 C-422.49640922 356.92123744 -419.5664184 353.97201536 -416.63244629 351.0267334 C-414.81357512 349.20040946 -412.99695473 347.37184014 -411.1829834 345.54064941 C-407.52697956 341.87017334 -403.87068048 338.26086289 -399.93945312 334.88476562 C-394.97162359 330.61621091 -390.40842513 325.95890867 -385.80078125 321.30859375 C-384.84518755 320.34858 -383.88928941 319.38886922 -382.93310547 318.42944336 C-379.92780575 315.41283006 -376.92648513 312.39227779 -373.92578125 309.37109375 C-370.44285114 305.86439224 -366.95821623 302.35941909 -363.46929932 298.8586731 C-362.08924992 297.47224035 -360.71230381 296.08272077 -359.33544922 294.69311523 C-355.01067666 290.35162424 -350.62472257 286.1889643 -345.97705078 282.19750977 C-341.7380674 278.42319 -337.79414905 274.33894383 -333.80078125 270.30859375 C-332.84518755 269.34858 -331.88928941 268.38886922 -330.93310547 267.42944336 C-327.92780575 264.41283006 -324.92648513 261.39227779 -321.92578125 258.37109375 C-318.44285114 254.86439224 -314.95821623 251.35941909 -311.46929932 247.8586731 C-310.08924992 246.47224035 -308.71230381 245.08272077 -307.33544922 243.69311523 C-303.01067666 239.35162424 -298.62472257 235.1889643 -293.97705078 231.19750977 C-289.7380674 227.42319 -285.79414905 223.33894383 -281.80078125 219.30859375 C-280.84518755 218.34858 -279.88928941 217.38886922 -278.93310547 216.42944336 C-275.92780575 213.41283006 -272.92648513 210.39227779 -269.92578125 207.37109375 C-266.44285114 203.86439224 -262.95821623 200.35941909 -259.46929932 196.8586731 C-258.08924992 195.47224035 -256.71230381 194.08272077 -255.33544922 192.69311523 C-251.00634191 188.34727274 -246.61605181 184.17953959 -241.96362305 180.18408203 C-237.8046517 176.48400761 -233.93565488 172.48064177 -230.01953125 168.52734375 C-228.60715193 167.10917725 -227.19476964 165.69101368 -225.78221893 164.27301788 C-223.32790624 161.80786243 -220.87693592 159.33938866 -218.42578125 156.87109375 C-215.49640922 153.92123744 -212.5664184 150.97201536 -209.63244629 148.0267334 C-207.81357512 146.20040946 -205.99695473 144.37184014 -204.1829834 142.54064941 C-200.52697956 138.87017334 -196.87068048 135.26086289 -192.93945312 131.88476562 C-187.97162359 127.61621091 -183.40842513 122.95890867 -178.80078125 118.30859375 C-177.84518755 117.34858 -176.88928941 116.38886922 -175.93310547 115.42944336 C-172.92780575 112.41283006 -169.92648513 109.39227779 -166.92578125 106.37109375 C-163.44285114 102.86439224 -159.95821623 99.35941909 -156.46929932 95.8586731 C-155.08924992 94.47224035 -153.71230381 93.08272077 -152.33544922 91.69311523 C-147.9566432 87.2973819 -143.51612942 83.07319395 -138.80923462 79.03192139 C-135.56672053 76.17267512 -132.55897147 73.0870991 -129.53125 70.00390625 C-128.14922864 68.60923616 -126.76706264 67.21470938 -125.38476562 65.8203125 C-123.25049025 63.6613309 -121.11787608 61.50076089 -118.98803711 59.33740234 C-110.96929691 51.2008895 -103.03016022 43.30536129 -93.92578125 36.37109375 C-92.99366821 35.65034668 -92.99366821 35.65034668 -92.04272461 34.91503906 C-65.61167169 14.82385391 -33.52609839 0.101369 0 0 Z " fill="#000000" transform="translate(571.92578125,-0.37109375)"/>
<path d="M0 0 C6.73474058 6.15096814 11.27092031 13.99142255 12.1953125 23.12109375 C12.50274953 35.53887631 9.2353384 44.33172469 1.09259033 53.70855713 C-0.79563183 55.69019136 -2.72227593 57.62178519 -4.67578125 59.5390625 C-5.73329086 60.59376236 -5.73329086 60.59376236 -6.81216431 61.66976929 C-8.29280809 63.14373972 -9.77702062 64.6141333 -11.26464844 66.08105469 C-13.52148659 68.30672373 -15.76747106 70.54289272 -18.01171875 72.78125 C-19.46161956 74.22197841 -20.91212067 75.66210299 -22.36328125 77.1015625 C-23.02500336 77.75903473 -23.68672546 78.41650696 -24.36849976 79.09390259 C-27.50508564 82.18345521 -30.68014471 85.17708743 -34.02001953 88.04638672 C-38.93912261 92.30230867 -43.4829879 96.91220952 -48.05859375 101.53125 C-49.47097307 102.9494165 -50.88335536 104.36758007 -52.29590607 105.78557587 C-54.75021876 108.25073132 -57.20118908 110.71920509 -59.65234375 113.1875 C-62.58171578 116.13735631 -65.5117066 119.08657839 -68.44567871 122.03186035 C-70.26454988 123.85818429 -72.08117027 125.68675361 -73.8951416 127.51794434 C-77.55114544 131.18842041 -81.20744452 134.79773086 -85.13867188 138.17382812 C-90.10650141 142.44238284 -94.66969987 147.09968508 -99.27734375 151.75 C-100.23293745 152.71001375 -101.18883559 153.66972453 -102.14501953 154.62915039 C-105.15031925 157.64576369 -108.15163987 160.66631596 -111.15234375 163.6875 C-114.63527386 167.19420151 -118.11990877 170.69917466 -121.60882568 174.19992065 C-122.98887508 175.5863534 -124.36582119 176.97587298 -125.74267578 178.36547852 C-130.07178309 182.71132101 -134.46207319 186.87905416 -139.11450195 190.87451172 C-143.2734733 194.57458614 -147.14247012 198.57795198 -151.05859375 202.53125 C-152.47097307 203.9494165 -153.88335536 205.36758007 -155.29590607 206.78557587 C-157.75021876 209.25073132 -160.20118908 211.71920509 -162.65234375 214.1875 C-165.58171578 217.13735631 -168.5117066 220.08657839 -171.44567871 223.03186035 C-173.26454988 224.85818429 -175.08117027 226.68675361 -176.8951416 228.51794434 C-180.55114544 232.18842041 -184.20744452 235.79773086 -188.13867188 239.17382812 C-193.10650141 243.44238284 -197.66969987 248.09968508 -202.27734375 252.75 C-203.23293745 253.71001375 -204.18883559 254.66972453 -205.14501953 255.62915039 C-208.15031925 258.64576369 -211.15163987 261.66631596 -214.15234375 264.6875 C-217.63527386 268.19420151 -221.11990877 271.69917466 -224.60882568 275.19992065 C-225.98887508 276.5863534 -227.36582119 277.97587298 -228.74267578 279.36547852 C-233.06744834 283.70696951 -237.45340243 287.86962945 -242.10107422 291.86108398 C-246.3400576 295.63540375 -250.28397595 299.71964992 -254.27734375 303.75 C-255.23293745 304.71001375 -256.18883559 305.66972453 -257.14501953 306.62915039 C-260.15031925 309.64576369 -263.15163987 312.66631596 -266.15234375 315.6875 C-269.63527386 319.19420151 -273.11990877 322.69917466 -276.60882568 326.19992065 C-277.98887508 327.5863534 -279.36582119 328.97587298 -280.74267578 330.36547852 C-285.19749202 334.8375159 -289.70459118 339.1709349 -294.50271606 343.27426147 C-314.53196374 360.43334816 -329.58618378 384.89946115 -332.9375 411.37109375 C-334.98365524 442.95629015 -328.10305293 471.05558223 -307.24487305 495.43457031 C-289.19879364 515.63672795 -263.08158284 529.04495698 -235.95483398 530.90698242 C-221.59260882 531.42196261 -207.91018789 531.04045141 -194.15234375 526.6875 C-193.46640137 526.47319336 -192.78045898 526.25888672 -192.07373047 526.03808594 C-160.10452395 515.73414745 -138.09482489 489.80456046 -115.08984375 466.625 C-111.49776593 463.0061418 -107.90223632 459.39076228 -104.3046875 455.77734375 C-103.50248276 454.96684067 -102.70027802 454.15633759 -101.87376404 453.3212738 C-98.41153276 449.84410016 -94.93654148 446.44585642 -91.21313477 443.24829102 C-86.2320383 438.96101968 -81.65071039 434.29118329 -77.02734375 429.625 C-76.07175005 428.66498625 -75.11585191 427.70527547 -74.15966797 426.74584961 C-71.15436825 423.72923631 -68.15304763 420.70868404 -65.15234375 417.6875 C-61.66941364 414.18079849 -58.18477873 410.67582534 -54.69586182 407.17507935 C-53.31581242 405.7886466 -51.93886631 404.39912702 -50.56201172 403.00952148 C-46.23723916 398.66803049 -41.85128507 394.50537055 -37.20361328 390.51391602 C-32.9646299 386.73959625 -29.02071155 382.65535008 -25.02734375 378.625 C-24.07175005 377.66498625 -23.11585191 376.70527547 -22.15966797 375.74584961 C-19.15436825 372.72923631 -16.15304763 369.70868404 -13.15234375 366.6875 C-9.66941364 363.18079849 -6.18477873 359.67582534 -2.69586182 356.17507935 C-1.31581242 354.7886466 0.06113369 353.39912702 1.43798828 352.00952148 C5.76276084 347.66803049 10.14871493 343.50537055 14.79638672 339.51391602 C19.0353701 335.73959625 22.97928845 331.65535008 26.97265625 327.625 C27.92824995 326.66498625 28.88414809 325.70527547 29.84033203 324.74584961 C32.84563175 321.72923631 35.84695237 318.70868404 38.84765625 315.6875 C42.33058636 312.18079849 45.81522127 308.67582534 49.30413818 305.17507935 C50.68418758 303.7886466 52.06113369 302.39912702 53.43798828 301.00952148 C57.76276084 296.66803049 62.14871493 292.50537055 66.79638672 288.51391602 C71.0353701 284.73959625 74.97928845 280.65535008 78.97265625 276.625 C79.92824995 275.66498625 80.88414809 274.70527547 81.84033203 273.74584961 C84.84563175 270.72923631 87.84695237 267.70868404 90.84765625 264.6875 C94.33058636 261.18079849 97.81522127 257.67582534 101.30413818 254.17507935 C102.68418758 252.7886466 104.06113369 251.39912702 105.43798828 250.00952148 C109.80777901 245.6228383 114.24035041 241.41243247 118.93734741 237.37963867 C122.35023106 234.35652937 125.49974332 231.0767597 128.6796875 227.8125 C130.15254065 226.31726086 131.62586255 224.82248332 133.09960938 223.328125 C135.38154465 221.00919067 137.66025045 218.68740334 139.9309082 216.35742188 C162.03774309 193.70240451 162.03774309 193.70240451 176.42578125 192.3515625 C189.63574794 192.21103094 198.9182087 195.19959941 208.53125 204.27734375 C214.74332869 210.86121768 217.97899474 219.65433022 217.84765625 228.6875 C216.38728252 245.6503026 207.32346989 254.24390978 195.78515625 265.875 C195.22006348 266.44492676 194.6549707 267.01485352 194.07275391 267.60205078 C191.22274893 270.44058033 188.3230769 273.16300595 185.26000977 275.77075195 C180.18029906 280.19860255 175.46361638 284.9651342 170.72265625 289.75 C169.76706255 290.71001375 168.81116441 291.66972453 167.85498047 292.62915039 C164.84968075 295.64576369 161.84836013 298.66631596 158.84765625 301.6875 C155.36472614 305.19420151 151.88009123 308.69917466 148.39117432 312.19992065 C147.01112492 313.5863534 145.63417881 314.97587298 144.25732422 316.36547852 C139.92821691 320.71132101 135.53792681 324.87905416 130.88549805 328.87451172 C126.7265267 332.57458614 122.85752988 336.57795198 118.94140625 340.53125 C117.52902693 341.9494165 116.11664464 343.36758007 114.70409393 344.78557587 C112.24978124 347.25073132 109.79881092 349.71920509 107.34765625 352.1875 C104.41828422 355.13735631 101.4882934 358.08657839 98.55432129 361.03186035 C96.73545012 362.85818429 94.91882973 364.68675361 93.1048584 366.51794434 C89.44885456 370.18842041 85.79255548 373.79773086 81.86132812 377.17382812 C76.89349859 381.44238284 72.33030013 386.09968508 67.72265625 390.75 C66.76706255 391.71001375 65.81116441 392.66972453 64.85498047 393.62915039 C61.84968075 396.64576369 58.84836013 399.66631596 55.84765625 402.6875 C52.36472614 406.19420151 48.88009123 409.69917466 45.39117432 413.19992065 C44.01112492 414.5863534 42.63417881 415.97587298 41.25732422 417.36547852 C36.92821691 421.71132101 32.53792681 425.87905416 27.88549805 429.87451172 C23.7265267 433.57458614 19.85752988 437.57795198 15.94140625 441.53125 C14.52902693 442.9494165 13.11664464 444.36758007 11.70409393 445.78557587 C9.24978124 448.25073132 6.79881092 450.71920509 4.34765625 453.1875 C1.41828422 456.13735631 -1.5117066 459.08657839 -4.44567871 462.03186035 C-6.26454988 463.85818429 -8.08117027 465.68675361 -9.8951416 467.51794434 C-13.55114544 471.18842041 -17.20744452 474.79773086 -21.13867188 478.17382812 C-26.10650141 482.44238284 -30.66969987 487.09968508 -35.27734375 491.75 C-36.23293745 492.71001375 -37.18883559 493.66972453 -38.14501953 494.62915039 C-41.15031925 497.64576369 -44.15163987 500.66631596 -47.15234375 503.6875 C-50.63527386 507.19420151 -54.11990877 510.69917466 -57.60882568 514.19992065 C-58.98887508 515.5863534 -60.36582119 516.97587298 -61.74267578 518.36547852 C-66.15385148 522.79370666 -70.62723527 527.05405545 -75.36956787 531.12512207 C-78.01942267 533.44738518 -80.45102515 535.92869958 -82.91015625 538.453125 C-83.95084546 539.51407055 -84.99204156 540.57451908 -86.03369141 541.63452148 C-86.56375793 542.17503143 -87.09382446 542.71554138 -87.63995361 543.27243042 C-96.656139 552.44103092 -105.56247753 561.32577144 -116.15234375 568.6875 C-116.70905762 569.08855957 -117.26577148 569.48961914 -117.83935547 569.90283203 C-158.10819695 598.89144451 -207.37733495 609.68518168 -256.27294922 602.21044922 C-292.86291558 595.98028136 -325.7440091 579.87128743 -352.60058594 554.171875 C-353.6511849 553.16689676 -354.70668909 552.16702573 -355.76660156 551.171875 C-388.68655958 520.1883851 -406.54940623 475.77123012 -408.375 430.95703125 C-408.88562806 411.19552682 -406.13085657 391.52021771 -400.15234375 372.6875 C-399.78931152 371.53870361 -399.78931152 371.53870361 -399.41894531 370.36669922 C-393.36528355 351.70318989 -384.37432043 334.06962097 -372.15234375 318.6875 C-371.24520882 317.533069 -371.24520882 317.533069 -370.31974792 316.35531616 C-364.57344905 309.17506979 -358.35834694 302.61392112 -351.8359375 296.140625 C-350.76900669 295.0748911 -349.70245058 294.00878196 -348.63624573 292.94232178 C-346.41984466 290.72746993 -344.20017448 288.51596978 -341.9777832 286.30712891 C-339.14983545 283.49622067 -336.32856616 280.67872365 -333.50950527 277.85890579 C-331.31430715 275.6639813 -329.11649975 273.4716851 -326.91783333 271.28023529 C-325.87719686 270.24274694 -324.83713501 269.20468186 -323.79769707 268.16599274 C-318.72450216 263.10046012 -313.60860902 258.15080874 -308.16639709 253.48040771 C-303.93972848 249.71783271 -300.00872329 245.6432508 -296.02734375 241.625 C-295.07175005 240.66498625 -294.11585191 239.70527547 -293.15966797 238.74584961 C-290.15436825 235.72923631 -287.15304763 232.70868404 -284.15234375 229.6875 C-280.66941364 226.18079849 -277.18477873 222.67582534 -273.69586182 219.17507935 C-272.31581242 217.7886466 -270.93886631 216.39912702 -269.56201172 215.00952148 C-265.23723916 210.66803049 -260.85128507 206.50537055 -256.20361328 202.51391602 C-251.9646299 198.73959625 -248.02071155 194.65535008 -244.02734375 190.625 C-243.07175005 189.66498625 -242.11585191 188.70527547 -241.15966797 187.74584961 C-238.15436825 184.72923631 -235.15304763 181.70868404 -232.15234375 178.6875 C-228.66941364 175.18079849 -225.18477873 171.67582534 -221.69586182 168.17507935 C-220.31581242 166.7886466 -218.93886631 165.39912702 -217.56201172 164.00952148 C-213.23723916 159.66803049 -208.85128507 155.50537055 -204.20361328 151.51391602 C-199.9646299 147.73959625 -196.02071155 143.65535008 -192.02734375 139.625 C-191.07175005 138.66498625 -190.11585191 137.70527547 -189.15966797 136.74584961 C-186.15436825 133.72923631 -183.15304763 130.70868404 -180.15234375 127.6875 C-176.66941364 124.18079849 -173.18477873 120.67582534 -169.69586182 117.17507935 C-168.31581242 115.7886466 -166.93886631 114.39912702 -165.56201172 113.00952148 C-161.23723916 108.66803049 -156.85128507 104.50537055 -152.20361328 100.51391602 C-147.9646299 96.73959625 -144.02071155 92.65535008 -140.02734375 88.625 C-139.07175005 87.66498625 -138.11585191 86.70527547 -137.15966797 85.74584961 C-134.15436825 82.72923631 -131.15304763 79.70868404 -128.15234375 76.6875 C-124.66941364 73.18079849 -121.18477873 69.67582534 -117.69586182 66.17507935 C-116.31581242 64.7886466 -114.93886631 63.39912702 -113.56201172 62.00952148 C-109.84957287 58.28273133 -106.14038835 54.61262675 -102.14794922 51.18530273 C-97.20345177 46.93898771 -92.67429041 42.29560865 -88.09765625 37.66015625 C-87.14693146 36.7024618 -86.19582276 35.74514833 -85.24435425 34.78819275 C-81.24621806 30.76590178 -77.25385807 26.73791502 -73.26611328 22.70532227 C-70.8103484 20.22247153 -68.34948373 17.7447656 -65.8856163 15.26995659 C-64.51609989 13.89138707 -63.15225511 12.50719034 -61.78860474 11.12281799 C-44.04857701 -6.68736851 -22.36700468 -17.78688245 0 0 Z " fill="#000000" transform="translate(617.15234375,148.3125)"/>
</svg>
