<?xml version="1.0" encoding="UTF-8" standalone="no"?>
<svg
   width="24"
   height="24"
   viewBox="0 0 24 24"
   fill="none"
   version="1.1"
   id="svg134"
   sodipodi:docname="Frame 96.svg"
   xmlns:inkscape="http://www.inkscape.org/namespaces/inkscape"
   xmlns:sodipodi="http://sodipodi.sourceforge.net/DTD/sodipodi-0.dtd"
   xmlns="http://www.w3.org/2000/svg"
   xmlns:svg="http://www.w3.org/2000/svg">
  <defs
     id="defs138" />
  <sodipodi:namedview
     id="namedview136"
     pagecolor="#ffffff"
     bordercolor="#000000"
     borderopacity="0.25"
     inkscape:showpageshadow="2"
     inkscape:pageopacity="0.0"
     inkscape:pagecheckerboard="0"
     inkscape:deskcolor="#d1d1d1"
     showgrid="false" />
  <path
     d="M 3.10898,23.0948 C 2.51966,23.0948 2.02083,22.8906 1.6125,22.4823 1.20417,22.074 1,21.5751 1,20.9858 V 5.37051 C 1,4.78119 1.20417,4.28236 1.6125,3.87402 2.02083,3.46569 2.51966,3.26152 3.10898,3.26152 H 13.2074 l -1.75,1.74998 H 3.10898 C 3.01923,5.0115 2.93695,5.04889 2.86215,5.12367 2.78736,5.19847 2.74997,5.28075 2.74997,5.37051 V 20.9858 c 0,0.0898 0.03739,0.1721 0.11218,0.2469 0.0748,0.0747 0.15708,0.1121 0.24683,0.1121 H 18.7243 c 0.0897,0 0.172,-0.0374 0.2468,-0.1121 0.0748,-0.0748 0.1122,-0.1571 0.1122,-0.2469 v -8.4224 l 1.75,-1.75 v 10.1724 c 0,0.5893 -0.2042,1.0882 -0.6125,1.4965 -0.4084,0.4083 -0.9072,0.6125 -1.4965,0.6125 z M 8,16.0948 V 12.09 L 18.5696,1.52051 C 18.7505,1.33952 18.9495,1.20752 19.1663,1.12451 19.3832,1.0415 19.6038,1 19.8282,1 c 0.2288,0 0.4487,0.0415 0.6596,0.12451 0.2109,0.08301 0.4031,0.21127 0.5766,0.38477 l 1.465,1.46058 c 0.169,0.18097 0.2988,0.38064 0.3893,0.59902 0.0905,0.21836 0.1357,0.43972 0.1357,0.66407 0,0.22437 -0.0385,0.442 -0.1155,0.6529 -0.0771,0.21087 -0.2061,0.4068 -0.387,0.58779 L 11.9487,16.0948 Z m 1.74997,-1.75 H 11.2038 L 18.4753,7.07332 17.7484,6.3464 16.9699,5.59704 9.74997,12.817 Z"
     fill="#475467"
     id="path132" />
</svg>
