<svg width="24" height="24" fill="none" xmlns="http://www.w3.org/2000/svg"><path d="M4.654 1.059a2.605 2.605 0 0 0-.834.272 3.227 3.227 0 0 0-1.516 1.547c-.306.638-.284-.074-.284 9.122 0 7.75.004 8.237.071 8.524.27 1.148 1.237 2.115 2.385 2.385.287.067.774.071 8.524.071 7.75 0 8.237-.004 8.524-.071 1.148-.27 2.115-1.237 2.385-2.385.067-.287.071-.774.071-8.524 0-7.75-.004-8.237-.071-8.524-.263-1.119-1.162-2.043-2.303-2.369L21.3 1.02l-8.18-.007c-6.575-.005-8.236.004-8.466.046M7.56 12v9H6.282c-1.194 0-1.294-.006-1.499-.082a1.405 1.405 0 0 1-.67-.603l-.093-.175-.01-8.054c-.007-5.406.003-8.105.03-8.207.091-.336.484-.74.814-.835.069-.02.706-.038 1.416-.04L7.56 3v9m13.66-8.917c.298.112.585.399.697.697l.083.223v15.994l-.083.223a1.28 1.28 0 0 1-.697.697c-.222.083-.242.083-5.942.083H9.56V3h5.718c5.7 0 5.72 0 5.942.083m-8.55 4.652a.97.97 0 0 0-.637.752c-.037.177-.033.254.024.453.068.237.088.259 1.475 1.65L14.938 12l-1.406 1.41c-1.387 1.391-1.407 1.413-1.475 1.65a.966.966 0 0 0 .441 1.119c.173.107.231.121.499.12.215 0 .344-.022.443-.074.192-.101 3.619-3.521 3.753-3.745.091-.153.107-.225.106-.48 0-.212-.022-.341-.074-.44-.098-.188-3.519-3.618-3.737-3.747-.211-.126-.593-.162-.818-.078" fill-rule="evenodd" fill="#000"/></svg>