<svg width="24" height="24" viewBox="0 0 24 24" fill="none" xmlns="http://www.w3.org/2000/svg">
  <path d="M 3.654,1.059 C 3.292,1.125 3.12,1.181 2.82,1.331 2.137,1.672 1.637,2.181 1.304,2.878 0.998,3.516 1.02,2.804 1.02,12 c 0,7.75 0.004,8.237 0.071,8.524 0.27,1.148 1.237,2.115 2.385,2.385 0.287,0.067 0.774,0.071 8.524,0.071 7.75,0 8.237,-0.004 8.524,-0.071 1.148,-0.27 2.115,-1.237 2.385,-2.385 C 22.976,20.237 22.98,19.75 22.98,12 22.98,4.25 22.976,3.763 22.909,3.476 22.646,2.357 21.747,1.433 20.606,1.107 L 20.3,1.02 12.12,1.013 C 5.545,1.008 3.884,1.017 3.654,1.059 M 15.947118,12 v 9 H 9.162 C 4.05,21 4.001,20.999 3.783,20.918 3.528,20.822 3.251,20.572 3.113,20.315 L 3.02,20.14 3.01,12.086 C 3.003,6.68 3.013,3.981 3.04,3.879 3.131,3.543 3.524,3.139 3.854,3.044 3.927,3.023 6.174,3.006 9.15,3.004 L 15.947118,3 v 9 M 20.22,3.083 c 0.298,0.112 0.585,0.399 0.697,0.697 L 21,4.003 V 12 19.997 L 20.917,20.22 C 20.805,20.518 20.518,20.805 20.22,20.917 20.006,20.997 19.72061,21 17.95461,21 h -0.0075 V 12 3 h 0.0075 c 1.766,0 2.05139,0.003 2.26539,0.083 m -9.72,4.69 c -0.294,0.143 -3.781,3.591 -3.878,3.834 -0.091,0.227 -0.086,0.587 0.01,0.803 0.053,0.116 0.613,0.732 1.779,1.954 1.913,2.004 1.889,1.985 2.369,1.946 0.279,-0.022 0.437,-0.093 0.622,-0.278 0.257,-0.257 0.345,-0.635 0.24,-1.025 -0.049,-0.18 -0.178,-0.325 -1.957,-2.187 l -0.764,-0.8 1.396,-1.37 C 11.328,9.658 11.737,9.23 11.801,9.099 11.976,8.736 11.892,8.258 11.602,7.968 11.412,7.778 11.254,7.71 10.96,7.692 c -0.215,-0.014 -0.294,0 -0.46,0.081" stroke="none" fill-rule="evenodd" fill="black"></path>
</svg>
