<?xml version="1.0" ?><!DOCTYPE svg  PUBLIC '-//W3C//DTD SVG 1.1//EN'  'http://www.w3.org/Graphics/SVG/1.1/DTD/svg11.dtd'><svg enable-background="new 0 0 32 32" height="32px" version="1.1" viewBox="0 0 32 32" width="32px" xml:space="preserve" xmlns="http://www.w3.org/2000/svg" xmlns:xlink="http://www.w3.org/1999/xlink"><g id="Guides"/><g id="Mail"/><g id="Cloud"/><g id="Home"/><g id="Back"/><g id="Next"/><g id="Reload"><path d="M23.0708,24.5186c-1.9492,1.9492-4.5103,2.9243-7.0708,2.9243c-2.561,0-5.1216-0.9746-7.0713-2.9243   c-2.1602-2.1602-3.2051-5.1421-2.8667-8.1816c0.061-0.5488,0.561-0.9482,1.1045-0.8828c0.5488,0.061,0.9443,0.5552,0.8828,1.1045   c-0.2705,2.4316,0.5654,4.8179,2.2935,6.5459c3.1187,3.1187,8.1943,3.1196,11.314,0c3.1191-3.1196,3.1191-8.1948,0-11.314   c-2.6387-2.6382-6.7271-3.0527-9.8169-1.1694l3.3022,0.8438c0.5352,0.1367,0.8579,0.6812,0.7212,1.2163   c-0.1152,0.4521-0.522,0.7524-0.9683,0.7524c-0.0815,0.0005-0.165-0.0098-0.248-0.0313l-6.4492-1.6479l1.6479-6.4497   C9.9819,4.77,10.5249,4.4438,11.062,4.5835c0.5352,0.1367,0.8579,0.6812,0.7212,1.2163l-0.7598,2.9736   c3.8359-2.1973,8.814-1.6304,12.0474,1.603C26.9697,14.2749,26.9697,20.6191,23.0708,24.5186z"/></g><g id="Buble"/><g id="Accept"/><g id="Reject"/><g id="User"/><g id="Download"/><g id="Upload"/><g id="Camera"/><g id="Notification"/><g id="About"/><g id="Search"/><g id="Cart"/><g id="Sound"/><g id="List"/><g id="Settings"/></svg>