<svg width="339.661" height="280.798" viewBox="0 0 89.869 74.294" xmlns="http://www.w3.org/2000/svg"><g transform="rotate(-20.013 -113.476 218.974)" stroke="#000" stroke-width=".4" stroke-linecap="round" stroke-linejoin="round" stroke-dashoffset="35.169"><rect width="30.834" height="22.601" x="59.066" y="88.299" ry="2.818" fill="#7c7c95"/><rect width="23.483" height="13.209" x="62.741" y="92.995" ry="1.647" fill="#afd0c6"/><rect width="3.507" height="1.162" x="55.906" y="99.018" ry=".218" fill="#7c7c95"/><circle cx="53.647" cy="99.6" r="2.5" fill="#e8cc2e"/><g transform="matrix(-1 0 0 1 148.965 0)"><rect width="3.507" height="1.162" x="55.906" y="99.018" ry=".218" fill="#7c7c95"/><circle cx="53.647" cy="99.6" r="2.5" fill="#e8cc2e"/></g><g fill="none"><path d="M66.954 97.846l2.077 1.896-2.077 1.611M82.012 97.846l-2.077 1.896 2.077 1.611M75.736 100.344s-.272-1.122-1.251-1.123c-1.019-.002-1.256 1.123-1.256 1.123"/></g></g><g transform="rotate(16.408 383.867 -141.109)" stroke="#000" stroke-width=".4" stroke-linecap="round" stroke-linejoin="round" stroke-dashoffset="35.169"><g transform="rotate(90 99.93 129.804)"><rect width="3.507" height="1.162" x="55.906" y="99.018" ry=".218" fill="#7c7c95"/><circle cx="53.647" cy="99.6" r="2.5" fill="#e8cc2e"/></g><rect width="30.834" height="22.601" x="114.718" y="88.678" ry="2.818" fill="#7c7c95"/><rect width="23.483" height="13.209" x="118.393" y="93.374" ry="1.647" fill="#afd0c6"/><g fill="none"><path d="M137.838 100.65s-.325-1.342-1.497-1.343c-1.22-.002-1.503 1.344-1.503 1.344M125.432 100.65s-.325-1.342-1.497-1.343c-1.22-.002-1.503 1.344-1.503 1.344M128.81 99.385s.287 1.186 1.323 1.187c1.077.002 1.328-1.187 1.328-1.187"/></g><g transform="translate(-.208)" fill="#faa4a4" fill-opacity=".726"><rect width="5.48" height="2.194" x="121.246" y="102.075" ry="1.097"/><rect width="5.48" height="2.194" x="133.96" y="102.075" ry="1.097"/></g></g><path d="M27.229 59.013s.537 3.7.513 5.561a21.657 21.657 0 01-.515 4.33c-.287 1.31-1.236 3.827-1.236 3.827l1.3.597 1.59.662 3.087-.67 1.356-1.088s.044-4.08-.309-6.077c-.39-2.207-1.977-6.424-1.977-6.424l-1.628-2.304s-.27.538-1.05.67c-.841.143-1.235-.034-1.235-.034z" fill="#ff7acd"/><path d="M29.417 57.46s2.18 4.104 2.9 6.301c.431 1.319.675 2.7.834 4.078.154 1.341.111 4.048.111 4.048l1.666.669 2.279-.59 2.27-1.916.811-1.874-2.375-5.065-4.307-5.16-2.393-1.494s-.147.73-.427.92c-.378.258-1.37.082-1.37.082z" fill="#7af2ff"/><path d="M24.546 58.6l-1.163 5.554s-1.155 2.66-1.937 3.874c-.824 1.28-2.874 3.552-2.874 3.552l.808 1.324 1.679.549 3.1-.194 1.937-.452s1.252-3.655 1.55-5.554c.346-2.213.557-4.495.258-6.716-.114-.85-.775-2.454-.775-2.454s-.678.399-1.056.485c-.496.114-1.527.032-1.527.032z" fill="#bd7aff"/><path d="M23.033 72.378l-.59-.7-.91-.093.483-.777-.193-.895.889.22.791-.46.065.913.683.61-.848.344z" fill="#f7e000" stroke="#cfa500" stroke-width=".06374224999999999" stroke-linecap="round" stroke-linejoin="round" stroke-dashoffset="35.169"/><path d="M34.428 60.626l-.66.363-.217.67-.362-.66-.67-.217.66-.362.216-.67.363.66z" fill="#f7e000" stroke="#cfa500" stroke-width=".026401499999999998" stroke-linecap="round" stroke-linejoin="round" stroke-dashoffset="35.169"/><path d="M33.873 69.645l-1.05.612-.321 1.091-.612-1.05-1.091-.32 1.05-.613.32-1.09.613 1.049z" fill="#f7e000" stroke="#cfa500" stroke-width=".042588" stroke-linecap="round" stroke-linejoin="round" stroke-dashoffset="35.169"/><path d="M29.343 65.293l-1.551-.203-1.255.935-.287-1.539-1.276-.905 1.374-.748.466-1.493 1.136 1.076 1.565-.018-.672 1.413z" fill="#f7e000" stroke="#cfa500" stroke-width=".10892881999999998" stroke-linecap="round" stroke-linejoin="round" stroke-dashoffset="35.169"/><path d="M24.481 58.503s-.487 3.853-1.098 5.683c-.435 1.306-.997 2.6-1.808 3.713-1.359 1.866-3.506 2.71-2.809 4.262.882 1.964 3.842 1.51 5.263 1.163 1.105-.271 1.541-.582 2.26-.485.704.095 1.53 1.222 3.875 1.066 1.817-.12 3.015-1.665 3.261-1.614 1.591.323 3.104.145 4.36-.614 1.214-.734 2.347-2.043 2.486-3.455.266-2.707-4.822-8.702-6.62-10.268-.689-.6-2.324-1.453-2.324-1.453" fill="none" stroke="#454545" stroke-width=".75" stroke-linecap="round" stroke-linejoin="round" stroke-dashoffset="35.169"/><g><path d="M66.204 35.6s-1.396 3.468-2.354 5.064a21.657 21.657 0 01-2.623 3.483c-.907.988-2.994 2.686-2.994 2.686l.823 1.17 1.041 1.372 3.005.974 1.72-.259s2.09-3.503 2.79-5.407c.774-2.102 1.523-6.546 1.523-6.546l-.248-2.81s-.503.329-1.245.05c-.798-.299-1.05-.65-1.05-.65z" fill="#ff7acd"/><path d="M68.877 35.358s-.181 4.644-.665 6.905c-.29 1.357-.774 2.673-1.33 3.944-.541 1.237-1.94 3.554-1.94 3.554l1.103 1.416 2.267.637 2.924-.514 1.645-1.21.495-5.573-1.127-6.626-1.315-2.496s-.495.557-.832.58c-.456.033-1.225-.617-1.225-.617z" fill="#7af2ff"/><path d="M64.093 33.893l-3.798 4.215s-2.337 1.718-3.624 2.374c-1.356.692-4.27 1.624-4.27 1.624l.031 1.55 1.175 1.32 2.777 1.391 1.901.584s2.922-2.528 4.134-4.02c1.413-1.738 2.743-3.605 3.602-5.674.329-.792.565-2.51.565-2.51s-.787.002-1.157-.113c-.486-.151-1.335-.741-1.335-.741z" fill="#bd7aff"/><path d="M55.854 45.04l-.157-.902-.74-.539.809-.428.283-.87.657.637h.916l-.403.822.283.87-.907-.128z" fill="#f7e000" stroke="#cfa500" stroke-width=".06374224999999999" stroke-linecap="round" stroke-linejoin="round" stroke-dashoffset="35.169"/><path d="M71.615 40.616l-.753-.019-.525.47.02-.752-.471-.525.753.02.524-.472-.019.754z" fill="#f7e000" stroke="#cfa500" stroke-width=".026401499999999998" stroke-linecap="round" stroke-linejoin="round" stroke-dashoffset="35.169"/><path d="M66.597 48.131l-1.215.001-.826.781-.001-1.215-.781-.826 1.215-.001.826-.781.001 1.215z" fill="#f7e000" stroke="#cfa500" stroke-width=".042588" stroke-linecap="round" stroke-linejoin="round" stroke-dashoffset="35.169"/><path d="M64.872 42.091l-1.239-.955-1.554.175.526-1.473-.648-1.425 1.564.045 1.155-1.056.44 1.502 1.361.771-1.291.883z" fill="#f7e000" stroke="#cfa500" stroke-width=".10892881999999998" stroke-linecap="round" stroke-linejoin="round" stroke-dashoffset="35.169"/><path d="M64.086 33.777s-2.359 3.084-3.807 4.359c-1.034.91-2.17 1.745-3.431 2.3-2.113.928-4.394.578-4.572 2.27-.226 2.14 2.56 3.238 3.964 3.652 1.09.322 1.624.273 2.197.719.56.436.706 1.825 2.812 2.87 1.631.81 3.443.078 3.63.245 1.213 1.08 2.61 1.687 4.077 1.663 1.419-.023 3.057-.584 3.887-1.735 1.591-2.205.21-9.947-.555-12.204-.294-.866-1.278-2.425-1.278-2.425" fill="none" stroke="#454545" stroke-width=".75" stroke-linecap="round" stroke-linejoin="round" stroke-dashoffset="35.169"/></g></svg>