<svg width="338.151" height="280.041" viewBox="0 0 89.469 74.094" xmlns="http://www.w3.org/2000/svg"><g transform="rotate(-20.013 -114.143 219.441)"><rect width="30.834" height="22.601" x="59.066" y="88.299" ry="2.818" fill="#7c7c95"/><rect width="23.483" height="13.209" x="62.741" y="92.995" ry="1.647" fill="#afd0c6"/><rect width="3.507" height="1.162" x="55.906" y="99.018" ry=".218" fill="#7c7c95"/><circle cx="53.647" cy="99.6" r="2.5" fill="#e8cc2e"/><g transform="matrix(-1 0 0 1 148.965 0)"><rect width="3.507" height="1.162" x="55.906" y="99.018" ry=".218" fill="#7c7c95"/><circle cx="53.647" cy="99.6" r="2.5" fill="#e8cc2e"/></g><g fill="none" stroke="#000" stroke-linecap="round" stroke-linejoin="round" stroke-dashoffset="35.169"><path d="M66.954 97.846l2.077 1.896-2.077 1.611M82.012 97.846l-2.077 1.896 2.077 1.611" stroke-width="1.016"/><path d="M75.736 100.344s-.272-1.122-1.251-1.123c-1.019-.002-1.256 1.123-1.256 1.123" stroke-width=".733"/></g></g><g transform="rotate(16.408 384.461 -141.903)"><g transform="rotate(90 99.93 129.804)"><rect width="3.507" height="1.162" x="55.906" y="99.018" ry=".218" fill="#7c7c95"/><circle cx="53.647" cy="99.6" r="2.5" fill="#e8cc2e"/></g><rect width="30.834" height="22.601" x="114.718" y="88.678" ry="2.818" fill="#7c7c95"/><rect width="23.483" height="13.209" x="118.393" y="93.374" ry="1.647" fill="#afd0c6"/><g fill="none" stroke="#000" stroke-linecap="round" stroke-linejoin="round" stroke-dashoffset="35.169"><path d="M137.838 100.65s-.325-1.342-1.497-1.343c-1.22-.002-1.503 1.344-1.503 1.344M125.432 100.65s-.325-1.342-1.497-1.343c-1.22-.002-1.503 1.344-1.503 1.344" stroke-width=".877"/><path d="M128.81 99.385s.287 1.186 1.323 1.187c1.077.002 1.328-1.187 1.328-1.187" stroke-width=".775"/></g><g transform="translate(-.208)" fill="#faa4a4" fill-opacity=".726"><rect width="5.48" height="2.194" x="121.246" y="102.075" ry="1.097"/><rect width="5.48" height="2.194" x="133.96" y="102.075" ry="1.097"/></g></g><path d="M27.028 58.812s.538 3.7.514 5.562a21.657 21.657 0 01-.515 4.33c-.287 1.31-1.236 3.827-1.236 3.827l1.3.597 1.59.662 3.087-.67 1.356-1.089s.044-4.08-.309-6.077c-.39-2.206-1.977-6.423-1.977-6.423l-1.628-2.304s-.27.537-1.05.67c-.841.143-1.235-.034-1.235-.034z" fill="#ff7acd"/><path d="M29.217 57.259s2.18 4.105 2.9 6.302c.431 1.319.675 2.7.833 4.078.155 1.34.112 4.047.112 4.047l1.666.67 2.279-.591 2.27-1.915.811-1.874-2.375-5.065-4.308-5.16-2.392-1.495s-.147.73-.427.92c-.378.258-1.37.083-1.37.083z" fill="#7af2ff"/><path d="M24.346 58.4l-1.163 5.553s-1.155 2.66-1.937 3.875c-.824 1.28-2.874 3.552-2.874 3.552l.807 1.324 1.68.549 3.1-.194 1.937-.452s1.252-3.655 1.55-5.554c.346-2.213.557-4.496.258-6.716-.115-.85-.775-2.454-.775-2.454s-.679.398-1.056.485c-.496.114-1.527.031-1.527.031z" fill="#bd7aff"/><path d="M22.833 72.178l-.59-.7-.91-.093.483-.777-.193-.895.889.22.791-.46.065.912.683.61-.849.345z" fill="#f7e000" stroke="#cfa500" stroke-width=".06374224999999999" stroke-linecap="round" stroke-linejoin="round" stroke-dashoffset="35.169"/><path d="M34.228 60.426l-.66.362-.217.67-.362-.66-.67-.216.66-.363.216-.67.363.66z" fill="#f7e000" stroke="#cfa500" stroke-width=".026401499999999998" stroke-linecap="round" stroke-linejoin="round" stroke-dashoffset="35.169"/><path d="M33.672 69.445l-1.05.612-.32 1.09-.613-1.049-1.09-.321 1.05-.612.32-1.09.613 1.049z" fill="#f7e000" stroke="#cfa500" stroke-width=".042588" stroke-linecap="round" stroke-linejoin="round" stroke-dashoffset="35.169"/><path d="M29.143 65.093l-1.551-.203-1.255.934-.287-1.538-1.276-.905 1.374-.748.466-1.494 1.136 1.076 1.565-.018-.672 1.413z" fill="#f7e000" stroke="#cfa500" stroke-width=".10892881999999998" stroke-linecap="round" stroke-linejoin="round" stroke-dashoffset="35.169"/><path d="M24.281 58.303s-.487 3.852-1.098 5.683c-.435 1.305-.997 2.6-1.808 3.713-1.359 1.866-3.506 2.71-2.81 4.262.883 1.964 3.843 1.51 5.264 1.162 1.105-.27 1.54-.581 2.26-.484.704.095 1.53 1.222 3.875 1.066 1.817-.121 3.015-1.665 3.261-1.615 1.591.323 3.103.145 4.36-.613 1.214-.734 2.347-2.043 2.486-3.455.265-2.707-4.822-8.702-6.62-10.268-.689-.6-2.324-1.453-2.324-1.453" fill="none" stroke="#454545" stroke-width=".75" stroke-linecap="round" stroke-linejoin="round" stroke-dashoffset="35.169"/><g><path d="M66.004 35.4s-1.397 3.467-2.354 5.064a21.657 21.657 0 01-2.623 3.483c-.907.987-2.994 2.686-2.994 2.686l.823 1.17 1.041 1.371 3.005.975 1.72-.259s2.09-3.504 2.79-5.407c.773-2.103 1.523-6.546 1.523-6.546l-.248-2.81s-.503.329-1.245.05c-.799-.3-1.05-.65-1.05-.65z" fill="#ff7acd"/><path d="M68.677 35.158s-.181 4.644-.665 6.905c-.29 1.357-.774 2.673-1.33 3.944-.542 1.236-1.94 3.554-1.94 3.554l1.103 1.416 2.267.636 2.924-.513 1.645-1.211.495-5.573-1.127-6.626-1.315-2.495s-.495.557-.833.58c-.456.033-1.224-.617-1.224-.617z" fill="#7af2ff"/><path d="M63.893 33.693l-3.798 4.215s-2.338 1.718-3.624 2.374c-1.357.692-4.27 1.624-4.27 1.624l.031 1.55 1.175 1.319 2.777 1.392 1.901.584s2.922-2.528 4.134-4.02c1.413-1.739 2.743-3.605 3.602-5.674.329-.793.565-2.511.565-2.511s-.787.003-1.157-.112c-.486-.151-1.336-.741-1.336-.741z" fill="#bd7aff"/><path d="M55.654 44.84l-.157-.903-.74-.538.808-.428.284-.87.657.636h.916l-.403.823.282.87-.906-.129z" fill="#f7e000" stroke="#cfa500" stroke-width=".06374224999999999" stroke-linecap="round" stroke-linejoin="round" stroke-dashoffset="35.169"/><path d="M71.415 40.416l-.753-.02-.525.471.02-.753-.471-.524.753.019.524-.47-.019.752z" fill="#f7e000" stroke="#cfa500" stroke-width=".026401499999999998" stroke-linecap="round" stroke-linejoin="round" stroke-dashoffset="35.169"/><path d="M66.397 47.93l-1.215.002-.826.78-.001-1.214-.781-.826 1.215-.002.826-.78.001 1.215z" fill="#f7e000" stroke="#cfa500" stroke-width=".042588" stroke-linecap="round" stroke-linejoin="round" stroke-dashoffset="35.169"/><path d="M64.672 41.891l-1.239-.956-1.554.176.526-1.473-.648-1.425 1.564.045 1.154-1.056.44 1.501 1.362.772-1.292.883z" fill="#f7e000" stroke="#cfa500" stroke-width=".10892881999999998" stroke-linecap="round" stroke-linejoin="round" stroke-dashoffset="35.169"/><path d="M63.886 33.577s-2.36 3.084-3.808 4.359c-1.033.91-2.17 1.745-3.43 2.3-2.114.928-4.394.577-4.572 2.27-.226 2.14 2.56 3.238 3.963 3.652 1.092.322 1.625.273 2.197.718.561.437.707 1.825 2.813 2.87 1.631.81 3.443.079 3.63.246 1.213 1.08 2.61 1.687 4.077 1.663 1.418-.023 3.056-.585 3.887-1.735 1.59-2.206.21-9.947-.555-12.204-.294-.866-1.279-2.426-1.279-2.426" fill="none" stroke="#454545" stroke-width=".75" stroke-linecap="round" stroke-linejoin="round" stroke-dashoffset="35.169"/></g></svg>