<svg width="126.201" height="126.201" viewBox="0 0 33.391 33.391" xmlns="http://www.w3.org/2000/svg"><g transform="translate(44.356 -135.38)"><path d="M-39.62 160.684l-4.115 4.115a2.05 2.05 0 000 2.904l.464.464a2.05 2.05 0 002.905 0l4.114-4.114z" fill="#a1a1aa"/><path d="M-39.62 160.684l-1.158 1.158 3.369 3.369 1.157-1.158z" fill="#71717a"/><path d="M-11.25 135.681c-1.027-1.028-4.729 1.02-8.299 4.59l-18.56 18.559a30.535 30.535 0 00-1.896 2.077l3.53 3.53a30.525 30.525 0 002.078-1.896l18.56-18.56c3.57-3.57 5.616-7.272 4.588-8.3z" fill="#94a3b8"/><path d="M-11.34 135.627l-26.973 26.972-1.767-1.767a29.98 29.98 0 011.894-2.077l18.549-18.55c3.535-3.534 7.212-5.558 8.296-4.578z" fill="#64748b"/><rect width=".461" height="16.669" x="90.113" y="122.311" rx="0" ry=".259" transform="rotate(45)" fill="#e2e8f0"/><rect width=".461" height="35.252" x="87.685" y="103.898" rx="0" ry=".547" transform="rotate(45)" fill="#afbac9"/><rect width="3.384" height="15.019" x="138.727" y="-95.496" ry="1.388" transform="rotate(135)" rx="1.692" fill="#a1a1aa"/><rect width=".409" height="3.128" x="90.165" y="118.015" rx="0" ry=".183" transform="rotate(45)" fill="#e2e8f0"/><path d="M-11.578 137.869s-.2.468-.443.905c-.074.133-.225.415-.431.743a20.32 20.32 0 01-.728 1.063c-.52.717-1.067 1.328-1.067 1.328" fill="none" stroke="#e2e8f0" stroke-width=".386" stroke-linecap="round" stroke-linejoin="round"/><path d="M-31.895 164.619c.27.268.405.507.437.746.017.134.027.382-.059.616a1.632 1.632 0 01-.265.493" fill="none" stroke="#e4e4e7" stroke-width=".416" stroke-linecap="round" stroke-linejoin="round" stroke-dashoffset="6.054"/><rect width=".435" height="7.187" x="138.769" y="-93.073" rx="0" ry=".218" transform="rotate(135)" fill="#e4e4e7"/><path d="M-40.685 168.155c-.283.22-.553.33-.793.362-.134.018-.373.061-.616.007" fill="#e4e4e7" stroke="#e4e4e7" stroke-width=".416" stroke-linecap="round" stroke-linejoin="round" stroke-dashoffset="6.054"/><rect width=".435" height="1.213" x="-90.349" y="-146.744" rx="0" ry=".218" transform="rotate(-135)" fill="#e4e4e7"/><path d="M-19.052 164.035l4.114 4.114a2.05 2.05 0 002.905 0l.464-.463a2.05 2.05 0 000-2.905l-4.114-4.115z" fill="#a1a1aa"/><path d="M-19.052 164.035l1.157 1.158 3.37-3.37-1.158-1.157z" fill="#71717a"/><path d="M-44.055 135.664c-1.028 1.028 1.019 4.73 4.589 8.3l18.56 18.56a30.533 30.533 0 002.076 1.896l3.531-3.53a30.526 30.526 0 00-1.896-2.078l-18.56-18.56c-3.57-3.57-7.272-5.617-8.3-4.588z" fill="#94a3b8"/><path d="M-44.11 135.755l26.973 26.973-1.767 1.766a29.98 29.98 0 01-2.078-1.893l-18.549-18.55c-3.535-3.534-5.559-7.211-4.579-8.296z" fill="#64748b"/><rect width=".461" height="16.669" x="-124.954" y="83.192" rx="0" ry=".259" transform="rotate(-45)" fill="#e2e8f0"/><rect width=".461" height="35.252" x="-127.382" y="64.779" rx="0" ry=".547" transform="rotate(-45)" fill="#afbac9"/><rect width="3.384" height="15.019" x="99.608" y="119.571" ry="1.388" transform="rotate(45)" rx="1.692" fill="#a1a1aa"/><rect width=".409" height="3.128" x="-124.902" y="78.897" rx="0" ry=".183" transform="rotate(-45)" fill="#e2e8f0"/><path d="M-41.868 135.993s.468.199.906.443c.133.074.414.224.743.43.328.207.704.469 1.062.728a18.62 18.62 0 011.328 1.067" fill="none" stroke="#e2e8f0" stroke-width=".386" stroke-linecap="round" stroke-linejoin="round"/><path d="M-15.118 156.309c.269-.27.507-.404.747-.436.134-.018.382-.028.615.058.234.086.316.136.494.265" fill="none" stroke="#e4e4e7" stroke-width=".416" stroke-linecap="round" stroke-linejoin="round" stroke-dashoffset="6.054"/><rect width=".435" height="7.187" x="99.65" y="121.995" rx="0" ry=".218" transform="rotate(45)" fill="#e4e4e7"/><path d="M-11.582 165.1c.22.282.33.553.363.792.017.134.061.373.006.616" fill="none" stroke="#e4e4e7" stroke-width=".416" stroke-linecap="round" stroke-linejoin="round" stroke-dashoffset="6.054"/><rect width=".435" height="1.213" x="124.719" y="-107.626" rx="0" ry=".218" transform="rotate(135)" fill="#e4e4e7"/></g></svg>