<svg width="46mm" height="173.858" viewBox="0 0 46 46" xmlns="http://www.w3.org/2000/svg"><g transform="translate(-68.454 -122.404)"><circle cx="91.454" cy="145.404" r="23" fill="#ef4444"/><path d="M85.096 136.156c-.739 0-1.477.283-2.042.848a2.881 2.881 0 000 4.084l4.317 4.317-4.317 4.316a2.881 2.881 0 000 4.084 2.881 2.881 0 004.083 0l4.317-4.317 4.317 4.317a2.881 2.881 0 004.084 0 2.881 2.881 0 000-4.084l-4.317-4.316 4.317-4.317a2.881 2.881 0 000-4.084 2.881 2.881 0 00-4.084 0l-4.317 4.317-4.317-4.317a2.878 2.878 0 00-2.041-.848z" fill="#fff"/></g></svg>