<svg width="28" height="28" viewBox="0 0 28 28" fill="none" xmlns="http://www.w3.org/2000/svg">
<mask id="mask0_1004_2341" style="mask-type:alpha" maskUnits="userSpaceOnUse" x="2" y="2" width="24" height="24">
<rect x="2" y="2" width="24" height="24" fill="#D9D9D9"/>
</mask>
<g mask="url(#mask0_1004_2341)">
<path d="M10 18H18V10H10V18ZM14 24C12.6167 24 11.3167 23.7375 10.1 23.2125C8.88333 22.6875 7.825 21.975 6.925 21.075C6.025 20.175 5.3125 19.1167 4.7875 17.9C4.2625 16.6833 4 15.3833 4 14C4 12.6167 4.2625 11.3167 4.7875 10.1C5.3125 8.88333 6.025 7.825 6.925 6.925C7.825 6.025 8.88333 5.3125 10.1 4.7875C11.3167 4.2625 12.6167 4 14 4C15.3833 4 16.6833 4.2625 17.9 4.7875C19.1167 5.3125 20.175 6.025 21.075 6.925C21.975 7.825 22.6875 8.88333 23.2125 10.1C23.7375 11.3167 24 12.6167 24 14C24 15.3833 23.7375 16.6833 23.2125 17.9C22.6875 19.1167 21.975 20.175 21.075 21.075C20.175 21.975 19.1167 22.6875 17.9 23.2125C16.6833 23.7375 15.3833 24 14 24ZM14 22C16.2333 22 18.125 21.225 19.675 19.675C21.225 18.125 22 16.2333 22 14C22 11.7667 21.225 9.875 19.675 8.325C18.125 6.775 16.2333 6 14 6C11.7667 6 9.875 6.775 8.325 8.325C6.775 9.875 6 11.7667 6 14C6 16.2333 6.775 18.125 8.325 19.675C9.875 21.225 11.7667 22 14 22Z" fill="#1C1B1F"/>
</g>
</svg>
