<svg width="32" height="32" viewBox="0 0 32 32" fill="none" xmlns="http://www.w3.org/2000/svg">
<g clip-path="url(#clip0_508_1631)">
<path d="M14.3471 5.8645H4.22135C2.74859 5.8645 1.55469 7.05841 1.55469 8.53117V22.3227C1.55469 23.7954 2.74859 24.9894 4.22135 24.9894H7.12753V29.4333C7.12753 30.649 8.62153 31.2304 9.44339 30.3346L13.9507 25.4214C14.2032 25.146 14.5597 24.9894 14.9332 24.9894H24.2928C25.7656 24.9894 26.9595 23.7954 26.9595 22.3227V18.6208" stroke="#344054" stroke-width="2" stroke-linecap="round" stroke-linejoin="round"/>
<path d="M21.2204 5.45874H27.779C27.779 5.45874 30.4457 5.45874 30.4457 8.12541V12.0427C30.4457 12.0427 30.4457 14.7094 27.779 14.7094H21.2204C21.2204 14.7094 18.5537 14.7094 18.5537 12.0427V8.12541C18.5537 8.12541 18.5537 5.45874 21.2204 5.45874Z" stroke="black" stroke-width="2" stroke-linejoin="round"/>
<path d="M24.499 1.80933V5.45829" stroke="black" stroke-width="2" stroke-linecap="round" stroke-linejoin="round"/>
<path d="M22.3213 9.56616V10.6146" stroke="black" stroke-width="1.5" stroke-linecap="round" stroke-linejoin="round"/>
<path d="M26.6758 9.56616V10.6146" stroke="black" stroke-width="1.5" stroke-linecap="round" stroke-linejoin="round"/>
</g>
<defs>
<clipPath id="clip0_508_1631">
<rect width="32" height="32" fill="white"/>
</clipPath>
</defs>
</svg>
