<?xml version="1.0" encoding="UTF-8" standalone="no"?>
<svg width="100%" height="100%" viewBox="0 0 32 32" version="1.1" xmlns="http://www.w3.org/2000/svg" xmlns:xlink="http://www.w3.org/1999/xlink" xml:space="preserve" xmlns:serif="http://www.serif.com/" style="fill-rule:evenodd;clip-rule:evenodd;stroke-linejoin:round;stroke-miterlimit:2;">
    <g>
        <path d="M14.347,4.864C14.899,4.865 15.347,5.313 15.347,5.865C15.347,6.416 14.899,6.865 14.347,6.864L4.221,6.864C3.301,6.864 2.555,7.611 2.555,8.531L2.555,22.323C2.555,23.243 3.301,23.989 4.221,23.989L7.128,23.989C7.68,23.989 8.128,24.437 8.128,24.989L8.128,29.433C8.128,29.737 8.501,29.882 8.707,29.659L13.214,24.746C13.656,24.264 14.279,23.989 14.933,23.989L24.293,23.989C25.213,23.989 25.959,23.243 25.959,22.323L25.959,18.621C25.96,18.069 26.408,17.621 26.96,17.621C27.511,17.621 27.96,18.069 27.959,18.621L27.959,22.323C27.959,24.348 26.318,25.989 24.293,25.989L14.933,25.989C14.84,25.989 14.751,26.028 14.688,26.097L10.18,31.011C8.742,32.578 6.128,31.561 6.128,29.433L6.128,25.989L4.221,25.989C2.196,25.989 0.555,24.348 0.555,22.323L0.555,8.531C0.555,6.506 2.196,4.864 4.221,4.864L14.347,4.864Z" style="fill:rgb(52,64,84);"/>
        <path d="M21.22,4.459L27.779,4.459C27.779,4.459 31.446,4.459 31.446,8.125L31.446,12.043C31.446,12.043 31.446,15.709 27.779,15.709L21.22,15.709C21.22,15.709 17.554,15.709 17.554,12.043L17.554,8.125C17.554,8.125 17.554,4.459 21.22,4.459ZM21.22,6.459C19.554,6.459 19.554,8.125 19.554,8.125L19.554,12.043C19.554,13.709 21.22,13.709 21.22,13.709L27.779,13.709C29.446,13.709 29.446,12.043 29.446,12.043L29.446,8.125C29.446,6.459 27.779,6.459 27.779,6.459L21.22,6.459Z"/>
        <path d="M23.499,1.809C23.499,1.257 23.947,0.809 24.499,0.809C25.051,0.809 25.499,1.257 25.499,1.809L25.499,5.458C25.499,6.01 25.051,6.458 24.499,6.458C23.947,6.458 23.499,6.01 23.499,5.458L23.499,1.809Z"/>
        <path d="M21.571,9.566C21.571,9.152 21.907,8.816 22.321,8.816C22.735,8.816 23.071,9.152 23.071,9.566L23.071,10.615C23.071,11.029 22.735,11.365 22.321,11.365C21.907,11.365 21.571,11.029 21.571,10.615L21.571,9.566Z"/>
        <path d="M25.926,9.566C25.926,9.152 26.262,8.816 26.676,8.816C27.09,8.816 27.426,9.152 27.426,9.566L27.426,10.615C27.426,11.029 27.09,11.365 26.676,11.365C26.262,11.365 25.926,11.029 25.926,10.615L25.926,9.566Z"/>
    </g>
</svg>
