<svg width="24" height="24" fill="none" xmlns="http://www.w3.org/2000/svg">
<path d="M3.46 6.774a1.417 1.417 0 0 0-.825.706c-.135.261-.135.776.001 1.06.076.161.875.98 4.08 4.184 2.191 2.191 4.072 4.04 4.18 4.109.38.244.596.303 1.104.303.506 0 .736-.062 1.084-.295.097-.064 1.978-1.923 4.18-4.129 3.235-3.241 4.023-4.05 4.099-4.212a1.278 1.278 0 0 0-.002-.999 1.49 1.49 0 0 0-.652-.643c-.276-.128-.722-.135-.989-.015-.14.062-1.024.924-3.95 3.848L12 14.459l-3.77-3.768C5.197 7.66 4.424 6.907 4.274 6.841c-.241-.106-.607-.136-.814-.067" fill="#667085" fill-rule="evenodd"/>
</svg>