<svg width="48" height="48" viewBox="0 0 48 48" fill="none" xmlns="http://www.w3.org/2000/svg">
<mask id="mask0_283_2596" style="mask-type:alpha" maskUnits="userSpaceOnUse" x="0" y="0" width="48" height="48">
<rect width="48" height="48" fill="#D9D9D9"/>
</mask>
<g mask="url(#mask0_283_2596)">
<path d="M24 26C23.4333 26 22.9583 25.8083 22.575 25.425C22.1917 25.0417 22 24.5667 22 24C22 23.4333 22.1917 22.9583 22.575 22.575C22.9583 22.1917 23.4333 22 24 22C24.5667 22 25.0417 22.1917 25.425 22.575C25.8083 22.9583 26 23.4333 26 24C26 24.5667 25.8083 25.0417 25.425 25.425C25.0417 25.8083 24.5667 26 24 26ZM24 44C21.2333 44 18.6333 43.475 16.2 42.425C13.7667 41.375 11.65 39.95 9.85 38.15C8.05 36.35 6.625 34.2333 5.575 31.8C4.525 29.3667 4 26.7667 4 24C4 21.2333 4.525 18.6333 5.575 16.2C6.625 13.7667 8.05 11.65 9.85 9.85C11.65 8.05 13.7667 6.625 16.2 5.575C18.6333 4.525 21.2333 4 24 4C26.7667 4 29.3667 4.525 31.8 5.575C34.2333 6.625 36.35 8.05 38.15 9.85C39.95 11.65 41.375 13.7667 42.425 16.2C43.475 18.6333 44 21.2333 44 24C44 26.7667 43.475 29.3667 42.425 31.8C41.375 34.2333 39.95 36.35 38.15 38.15C36.35 39.95 34.2333 41.375 31.8 42.425C29.3667 43.475 26.7667 44 24 44ZM24 40C28.4667 40 32.25 38.45 35.35 35.35C38.45 32.25 40 28.4667 40 24C40 19.5333 38.45 15.75 35.35 12.65C32.25 9.55 28.4667 8 24 8C19.5333 8 15.75 9.55 12.65 12.65C9.55 15.75 8 19.5333 8 24C8 28.4667 9.55 32.25 12.65 35.35C15.75 38.45 19.5333 40 24 40ZM14.85 34.15L27.35 28.3C27.55 28.2 27.7333 28.0667 27.9 27.9C28.0667 27.7333 28.2 27.55 28.3 27.35L34.15 14.85C34.3167 14.5167 34.275 14.225 34.025 13.975C33.775 13.725 33.4833 13.6833 33.15 13.85L20.65 19.7C20.45 19.8 20.2667 19.9333 20.1 20.1C19.9333 20.2667 19.8 20.45 19.7 20.65L13.85 33.15C13.6833 33.4833 13.725 33.775 13.975 34.025C14.225 34.275 14.5167 34.3167 14.85 34.15Z" fill="#1C1B1F"/>
</g>
</svg>
