<svg width="20" height="20" viewBox="0 0 20 20" fill="none" xmlns="http://www.w3.org/2000/svg">
<mask id="mask0_508_1409" style="mask-type:alpha" maskUnits="userSpaceOnUse" x="0" y="0" width="20" height="20">
<rect width="20" height="20" fill="#D9D9D9"/>
</mask>
<g mask="url(#mask0_508_1409)">
<path d="M10.0003 17.4999L8.79199 16.4166C7.38921 15.1527 6.22949 14.0624 5.31283 13.1458C4.39616 12.2291 3.66699 11.4062 3.12533 10.677C2.58366 9.94784 2.20519 9.2777 1.98991 8.66658C1.77463 8.05547 1.66699 7.43047 1.66699 6.79158C1.66699 5.48603 2.10449 4.39575 2.97949 3.52075C3.85449 2.64575 4.94477 2.20825 6.25033 2.20825C6.97255 2.20825 7.66005 2.36103 8.31283 2.66659C8.9656 2.97214 9.5281 3.4027 10.0003 3.95825C10.4725 3.4027 11.035 2.97214 11.6878 2.66659C12.3406 2.36103 13.0281 2.20825 13.7503 2.20825C15.0559 2.20825 16.1462 2.64575 17.0212 3.52075C17.8962 4.39575 18.3337 5.48603 18.3337 6.79158C18.3337 7.43047 18.226 8.05547 18.0107 8.66658C17.7955 9.2777 17.417 9.94784 16.8753 10.677C16.3337 11.4062 15.6045 12.2291 14.6878 13.1458C13.7712 14.0624 12.6114 15.1527 11.2087 16.4166L10.0003 17.4999ZM10.0003 15.2499C11.3337 14.0555 12.4309 13.0312 13.292 12.177C14.1531 11.3228 14.8337 10.5798 15.3337 9.94784C15.8337 9.31589 16.1809 8.75339 16.3753 8.26034C16.5698 7.76728 16.667 7.2777 16.667 6.79158C16.667 5.95825 16.3892 5.26381 15.8337 4.70825C15.2781 4.1527 14.5837 3.87492 13.7503 3.87492C13.0975 3.87492 12.4934 4.05895 11.9378 4.427C11.3823 4.79506 11.0003 5.26381 10.792 5.83325H9.20866C9.00033 5.26381 8.61838 4.79506 8.06283 4.427C7.50727 4.05895 6.9031 3.87492 6.25033 3.87492C5.41699 3.87492 4.72255 4.1527 4.16699 4.70825C3.61144 5.26381 3.33366 5.95825 3.33366 6.79158C3.33366 7.2777 3.43088 7.76728 3.62533 8.26034C3.81977 8.75339 4.16699 9.31589 4.66699 9.94784C5.16699 10.5798 5.84755 11.3228 6.70866 12.177C7.56977 13.0312 8.66699 14.0555 10.0003 15.2499Z" fill="#1D2939"/>
</g>
</svg>
