<svg width="18" height="18" viewBox="0 0 18 18" fill="none"
    xmlns="http://www.w3.org/2000/svg">
    <path d="M8.99499 13.2001C9.21682 13.2001 9.4043 13.1246 9.55742 12.9737C9.71055 12.8228 9.78711 12.6357 9.78711 12.4126V8.7376C9.78711 8.51447 9.71209 8.32744 9.56204 8.1765C9.41197 8.02557 9.22604 7.9501 9.00422 7.9501C8.7824 7.9501 8.59492 8.02557 8.4418 8.1765C8.28867 8.32744 8.21211 8.51447 8.21211 8.7376V12.4126C8.21211 12.6357 8.28713 12.8228 8.43718 12.9737C8.58724 13.1246 8.77318 13.2001 8.99499 13.2001ZM8.99499 6.3751C9.21682 6.3751 9.4043 6.30007 9.55742 6.15003C9.71055 5.99996 9.78711 5.81403 9.78711 5.59221C9.78711 5.37039 9.71209 5.18291 9.56204 5.02979C9.41197 4.87666 9.22604 4.8001 9.00422 4.8001C8.7824 4.8001 8.59492 4.87512 8.4418 5.02517C8.28867 5.17523 8.21211 5.36117 8.21211 5.58298C8.21211 5.80481 8.28713 5.99228 8.43718 6.14541C8.58724 6.29853 8.77318 6.3751 8.99499 6.3751ZM9.00565 17.4001C7.84954 17.4001 6.76107 17.1813 5.74023 16.7438C4.7194 16.3063 3.82617 15.7048 3.06055 14.9392C2.29492 14.1735 1.69336 13.2806 1.25586 12.2604C0.818359 11.2402 0.599609 10.1501 0.599609 8.99008C0.599609 7.83009 0.818359 6.74333 1.25586 5.72979C1.69336 4.71624 2.29492 3.82666 3.06055 3.06104C3.82617 2.29541 4.71909 1.69385 5.73932 1.25635C6.75955 0.818848 7.84966 0.600098 9.00963 0.600098C10.1696 0.600098 11.2564 0.818848 12.2699 1.25635C13.2835 1.69385 14.173 2.29541 14.9387 3.06104C15.7043 3.82666 16.3059 4.71788 16.7434 5.73468C17.1809 6.75151 17.3996 7.83797 17.3996 8.99406C17.3996 10.1502 17.1809 11.2386 16.7434 12.2595C16.3059 13.2803 15.7043 14.1735 14.9387 14.9392C14.173 15.7048 13.2818 16.3063 12.265 16.7438C11.2482 17.1813 10.1617 17.4001 9.00565 17.4001ZM8.99961 15.8251C10.8954 15.8251 12.5069 15.1616 13.834 13.8345C15.1611 12.5074 15.8246 10.8959 15.8246 9.0001C15.8246 7.10426 15.1611 5.49281 13.834 4.16572C12.5069 2.83864 10.8954 2.1751 8.99961 2.1751C7.10378 2.1751 5.49232 2.83864 4.16523 4.16572C2.83815 5.49281 2.17461 7.10426 2.17461 9.0001C2.17461 10.8959 2.83815 12.5074 4.16523 13.8345C5.49232 15.1616 7.10378 15.8251 8.99961 15.8251Z" fill="#0099FF"/>
</svg>
