<?xml version="1.0" encoding="UTF-8" standalone="no"?>
<svg width="100%" height="100%" viewBox="0 0 32 32" version="1.1" xmlns="http://www.w3.org/2000/svg" xmlns:xlink="http://www.w3.org/1999/xlink" xml:space="preserve" xmlns:serif="http://www.serif.com/" style="fill-rule:evenodd;clip-rule:evenodd;stroke-linejoin:round;stroke-miterlimit:2;">
    <path d="M30,11L30,25C30,25.796 29.684,26.559 29.121,27.121C28.559,27.684 27.796,28 27,28L5,28C4.204,28 3.441,27.684 2.879,27.121C2.316,26.559 2,25.796 2,25L2,7C2,6.204 2.316,5.441 2.879,4.879C3.441,4.316 4.204,4 5,4L10,4C10.466,4 10.925,4.108 11.342,4.317C11.758,4.525 12.121,4.827 12.4,5.2L14.5,8L27,8C27.796,8 28.559,8.316 29.121,8.879C29.684,9.441 30,10.204 30,11ZM28,11C28,10.735 27.895,10.48 27.707,10.293C27.52,10.105 27.265,10 27,10L14,10C13.685,10 13.389,9.852 13.2,9.6L10.8,6.4C10.707,6.276 10.586,6.175 10.447,6.106C10.308,6.036 10.155,6 10,6L5,6C4.735,6 4.48,6.105 4.293,6.293C4.105,6.48 4,6.735 4,7L4,25C4,25.265 4.105,25.52 4.293,25.707C4.48,25.895 4.735,26 5,26L27,26C27.265,26 27.52,25.895 27.707,25.707C27.895,25.52 28,25.265 28,25L28,11Z" style="fill:rgb(52,64,84);"/>
</svg>
