<svg width="12" height="14" viewBox="0 0 12 14" fill="none"
    xmlns="http://www.w3.org/2000/svg">
    <path d="M0.799805 12.7678V1.23183C0.799805 0.916037 0.906058 0.660916 1.11857 0.466471C1.33106 0.272027 1.57897 0.174805 1.86232 0.174805C1.95085 0.174805 2.04381 0.189388 2.14121 0.218555C2.23861 0.247721 2.33283 0.290216 2.42389 0.346041L11.329 6.1248C11.4845 6.22831 11.6061 6.35767 11.6936 6.5129C11.7811 6.66814 11.8248 6.83201 11.8248 7.0045C11.8248 7.17699 11.7811 7.34086 11.6936 7.4961C11.6061 7.65135 11.4845 7.77758 11.329 7.8748L2.42348 13.6572C2.33243 13.7131 2.23681 13.755 2.13663 13.7829C2.03647 13.8108 1.94086 13.8248 1.8498 13.8248C1.5698 13.8248 1.3248 13.7276 1.1148 13.5331C0.904804 13.3387 0.799805 13.0836 0.799805 12.7678Z" fill="#087443"/>
</svg>
