<svg width="18" height="13" viewBox="0 0 18 13" fill="none" xmlns="http://www.w3.org/2000/svg">
<path d="M9 10.3334C10.0417 10.3334 10.9271 9.96879 11.6562 9.23962C12.3854 8.51046 12.75 7.62504 12.75 6.58337C12.75 5.54171 12.3854 4.65629 11.6562 3.92712C10.9271 3.19796 10.0417 2.83337 9 2.83337C7.95833 2.83337 7.07292 3.19796 6.34375 3.92712C5.61458 4.65629 5.25 5.54171 5.25 6.58337C5.25 7.62504 5.61458 8.51046 6.34375 9.23962C7.07292 9.96879 7.95833 10.3334 9 10.3334ZM9 8.83337C8.375 8.83337 7.84375 8.61462 7.40625 8.17712C6.96875 7.73962 6.75 7.20837 6.75 6.58337C6.75 5.95837 6.96875 5.42712 7.40625 4.98962C7.84375 4.55212 8.375 4.33337 9 4.33337C9.625 4.33337 10.1562 4.55212 10.5938 4.98962C11.0312 5.42712 11.25 5.95837 11.25 6.58337C11.25 7.20837 11.0312 7.73962 10.5938 8.17712C10.1562 8.61462 9.625 8.83337 9 8.83337ZM9 12.8334C7.13889 12.8334 5.44097 12.3334 3.90625 11.3334C2.37153 10.3334 1.15972 9.01393 0.270833 7.37504C0.201389 7.25004 0.149306 7.12157 0.114583 6.98962C0.0798611 6.85768 0.0625 6.72226 0.0625 6.58337C0.0625 6.44449 0.0798611 6.30907 0.114583 6.17712C0.149306 6.04518 0.201389 5.91671 0.270833 5.79171C1.15972 4.15282 2.37153 2.83337 3.90625 1.83337C5.44097 0.833374 7.13889 0.333374 9 0.333374C10.8611 0.333374 12.559 0.833374 14.0937 1.83337C15.6285 2.83337 16.8403 4.15282 17.7292 5.79171C17.7986 5.91671 17.8507 6.04518 17.8854 6.17712C17.9201 6.30907 17.9375 6.44449 17.9375 6.58337C17.9375 6.72226 17.9201 6.85768 17.8854 6.98962C17.8507 7.12157 17.7986 7.25004 17.7292 7.37504C16.8403 9.01393 15.6285 10.3334 14.0937 11.3334C12.559 12.3334 10.8611 12.8334 9 12.8334ZM9 11.1667C10.5694 11.1667 12.0104 10.7535 13.3229 9.92712C14.6354 9.10073 15.6389 7.98615 16.3333 6.58337C15.6389 5.1806 14.6354 4.06601 13.3229 3.23962C12.0104 2.41323 10.5694 2.00004 9 2.00004C7.43056 2.00004 5.98958 2.41323 4.67708 3.23962C3.36458 4.06601 2.36111 5.1806 1.66667 6.58337C2.36111 7.98615 3.36458 9.10073 4.67708 9.92712C5.98958 10.7535 7.43056 11.1667 9 11.1667Z" fill="#1C1B1F"/>
</svg>
